<svg width="975" height="520" viewBox="0 0 975 520" fill="none" xmlns="http://www.w3.org/2000/svg">
<mask id="mask0_3288_899" style="mask-type:luminance" maskUnits="userSpaceOnUse" x="2" y="0" width="973" height="520">
<path d="M974.565 0H2.23438V520H974.565V0Z" fill="white"/>
</mask>
<g mask="url(#mask0_3288_899)">
<path d="M734.075 0H737.642C742.816 1.23175 746.091 2.24762 747.478 3.04762C819.619 44.457 891.752 85.8858 963.867 127.333C968.673 130.089 972.239 134.717 974.566 141.219V148.095C972.01 154.698 967.2 160.032 960.132 164.095C890.292 204.21 820.447 244.318 750.607 284.419C731.653 295.295 717.318 285.981 717.335 265.276C717.4 187.841 717.361 108.025 717.223 25.8286C717.21 19.5556 717.946 14.6921 719.433 11.2381C722.037 5.16824 726.921 1.42222 734.075 0Z" fill="#3A4862"/>
<path d="M565.92 162.952C569.257 156.667 575.986 156.171 582.088 159.676C624.004 183.803 661.899 205.587 695.773 225.028C699.014 226.895 701.471 229.327 703.152 232.324C704.548 234.85 704.422 237.428 702.771 240.057C701.28 242.431 699.313 244.323 696.86 245.733C658.601 267.79 620.186 289.866 581.611 311.962C571.259 317.886 563.974 310.495 564.031 300.228C564.247 259.428 564.247 216.692 564.031 172.019C564.018 168.362 564.646 165.339 565.92 162.952Z" fill="#3A4862"/>
<path d="M66.1207 217.466C66.1207 218.622 66.502 218.774 67.2647 217.923C72.9717 211.562 80.2162 209.453 88.999 211.6C101.601 214.666 105.262 225.618 105.224 237.504C105.173 247.968 105.167 258.444 105.205 268.933C105.205 269.646 105.045 270.348 104.739 270.988C104.431 271.628 103.985 272.189 103.432 272.628C101.792 273.923 100.228 274.431 98.7416 274.152C96.0467 273.631 94.6934 271.999 94.6804 269.257C94.6553 259.492 94.6934 249.06 94.7948 237.962C94.8329 233.923 94.2293 230.488 92.9839 227.657C89.5328 219.847 79.1424 217.619 72.2788 222.342C68.1608 225.161 66.1016 229.942 66.1207 234.933C66.1588 247.517 66.1844 258.755 66.197 268.647C66.197 271.415 64.8753 273.212 62.2315 274.038C61.6214 274.216 60.9857 274.235 60.3249 274.095C57.1221 273.371 55.5205 271.365 55.5205 268.076L55.6349 189.39C55.6475 186.304 57.1472 184.393 60.1342 183.657C61.1001 183.415 62.0916 183.549 63.1086 184.057C65.1929 185.06 66.229 186.717 66.216 189.028L66.1207 217.466Z" fill="#3A4862"/>
<path d="M2.23438 197.943V194.286C3.32745 191.607 5.55174 190.274 8.90721 190.286C21.2869 190.337 34.3911 190.369 48.2196 190.382C50.8252 190.382 52.7063 191.797 53.8633 194.629C54.0536 195.099 54.0726 195.588 53.9205 196.096C53.0686 198.788 51.4163 200.191 48.9632 200.305C44.5527 200.509 39.8375 200.401 34.8169 199.982C34.603 199.966 34.388 199.994 34.1858 200.064C33.9836 200.135 33.7986 200.246 33.6425 200.392C33.4865 200.537 33.3628 200.713 33.2794 200.908C33.1961 201.103 33.1548 201.313 33.1582 201.524L33.2345 268.458C33.2345 271.188 31.9508 273.036 29.3833 274.001C28.7732 274.229 28.1632 274.274 27.5531 274.134C24.3374 273.436 22.7359 271.442 22.7486 268.153L22.8249 201.829C22.8284 201.582 22.7773 201.338 22.675 201.112C22.5729 200.887 22.4221 200.687 22.2332 200.525C22.0443 200.364 21.822 200.245 21.5817 200.177C21.3414 200.11 21.089 200.095 20.8421 200.134C12.9999 201.429 6.79731 200.699 2.23438 197.943Z" fill="#3A4862"/>
<path d="M120.267 248.171C121.703 258.241 127.207 263.841 136.778 264.971C143.158 265.733 149.793 263.307 156.682 257.695C158.754 256.019 160.648 256.196 162.364 258.228C162.491 258.381 162.598 258.552 162.688 258.743C163.21 259.903 163.32 261.214 162.999 262.47C162.678 263.725 161.945 264.853 160.914 265.676C145.605 277.866 120.782 278.19 112.641 257.524C105.377 239.047 112.279 213.714 134.414 210.99C152.24 208.781 164.27 223.885 164.67 240.838C164.759 244.711 162.738 246.653 158.607 246.666C146.101 246.692 133.778 246.679 121.64 246.628C120.585 246.628 120.127 247.142 120.267 248.171ZM121.011 238.628L153.231 238.514C153.373 238.514 153.508 238.458 153.608 238.358C153.709 238.258 153.765 238.122 153.765 237.981L153.746 237.18C153.729 232.594 152.035 228.202 149.036 224.969C146.036 221.737 141.977 219.928 137.75 219.942H136.339C134.246 219.949 132.175 220.403 130.243 221.279C128.312 222.155 126.559 223.435 125.084 225.047C123.609 226.658 122.442 228.569 121.648 230.671C120.854 232.772 120.45 235.023 120.458 237.295L120.477 238.095C120.477 238.236 120.533 238.372 120.633 238.472C120.734 238.572 120.869 238.628 121.011 238.628Z" fill="#3A4862"/>
<path d="M678.691 273.638L750.624 314.971C751.604 315.536 752.423 316.349 752.99 317.328C753.558 318.308 753.853 319.42 753.853 320.552C753.853 321.684 753.558 322.796 752.99 323.776C752.423 324.756 751.604 325.569 750.624 326.133L678.691 367.466C677.712 368.027 676.602 368.321 675.471 368.318C674.345 368.315 673.235 368.017 672.256 367.451C671.281 366.886 670.471 366.075 669.907 365.098C669.34 364.121 669.045 363.014 669.045 361.886V279.219C669.045 278.091 669.34 276.983 669.907 276.007C670.471 275.03 671.281 274.218 672.256 273.653C673.235 273.088 674.345 272.789 675.471 272.786C676.602 272.784 677.712 273.077 678.691 273.638Z" fill="#3A4862"/>
<path d="M120.401 373.391C104.272 365.981 80.1547 363.277 77.0659 342.038C74.5876 324.953 87.075 311.086 103.128 307.715C112.724 305.695 122.486 306.953 132.413 311.486C135.92 313.086 141.697 317.81 140.229 322.305C138.323 328.115 132.47 328.381 128.123 325.238C121.577 320.514 114.669 318.749 107.399 319.943C100.052 321.149 95.3941 324.819 93.4238 330.952C91.2632 337.683 92.7313 343.029 97.8282 346.991C104.272 352.039 113.08 354.915 120.916 357.448C134.129 361.676 145.968 369.543 147.76 383.772C148.599 390.4 147.83 396.578 145.453 402.305C139.187 417.378 127.151 425.181 109.344 425.715C100.701 425.969 92.4388 424.413 84.5586 421.048C78.5721 418.495 71.2891 412.134 78.0192 405.296C78.8538 404.445 79.9566 403.906 81.1435 403.771C82.3304 403.636 83.529 403.912 84.5396 404.552C88.2255 406.889 91.9561 408.832 95.7308 410.381C110.678 416.515 126.998 411.867 131.555 395.276C134.376 385.029 129.724 377.676 120.401 373.391Z" fill="#3A4862"/>
<path d="M309.623 371.067C303.713 371.245 297.504 371.34 290.997 371.353C286.764 371.365 284.33 369.188 283.695 364.819C283.58 364.057 283.688 363.315 284.019 362.59C285.544 359.251 288.143 357.562 291.816 357.524C298.502 357.46 306.643 357.473 316.239 357.562C322.035 357.613 325.2 360.21 325.734 365.353C326.623 373.721 325.949 382.311 323.713 391.124C318.933 410.019 307.386 421.181 289.071 424.61C256.812 430.667 232.294 412.991 226.194 381.067C222.33 360.851 225.59 343.048 235.974 327.657C243.359 316.711 254.105 310.089 268.213 307.791C283.135 305.352 296.761 307.753 309.089 314.991C312.623 317.061 315.508 319.778 317.745 323.143C320.758 327.676 315.762 332.362 311.473 333.124C311.015 333.2 310.577 333.137 310.157 332.934C306.802 331.27 303.541 329.289 300.377 326.99C282.15 313.733 256.87 318.172 246.498 339.124C243.639 344.889 241.916 350.527 241.332 356.038C240.855 360.362 239.978 364.857 240.455 368.953C242.437 386.191 245.812 400.153 261.484 409.2C271.398 414.933 287.088 414.21 296.888 407.029C307.463 399.283 312.229 387.765 311.187 372.476C311.123 371.511 310.602 371.041 309.623 371.067Z" fill="#3A4862"/>
<path d="M31.8412 322.572V358.4C31.8412 358.713 31.9677 359.014 32.193 359.235C32.4182 359.457 32.7238 359.581 33.0423 359.581L62.517 359.505C65.8983 359.492 68.0654 361.105 69.0183 364.343C69.3489 365.473 69.4061 366.597 69.1899 367.715C68.4654 371.308 66.2666 373.098 62.5933 373.086L33.1186 372.876C32.7747 372.876 32.445 373.013 32.2019 373.256C31.9587 373.499 31.8221 373.828 31.8221 374.172C31.9238 387.708 31.892 402.502 31.7268 418.552C31.676 423.289 29.2801 425.619 24.5392 425.543C24.5011 425.543 24.4058 425.543 24.2532 425.543C19.5123 425.467 17.1419 423.06 17.1419 418.324C17.1037 384.749 17.1037 350.165 17.1419 314.571C17.1419 312.839 17.8308 311.177 19.0572 309.952C20.2836 308.727 21.9469 308.038 23.6813 308.038H66.7307C70.4167 308.038 72.5773 309.854 73.213 313.486C73.3144 314.07 73.3274 314.654 73.2511 315.238C72.7935 319.391 70.4739 321.461 66.2922 321.448L33.0232 321.39C32.2352 321.39 31.8412 321.784 31.8412 322.572Z" fill="#3A4862"/>
<path d="M173.327 374.305V409.905C173.327 410.254 173.468 410.588 173.718 410.834C173.968 411.081 174.308 411.219 174.662 411.219L207.435 411.086C210.956 411.073 213.459 412.667 214.947 415.867C215.29 416.629 215.398 417.41 215.271 418.21C214.622 422.527 212.112 424.686 207.74 424.686L165.415 424.667C163.595 424.667 161.849 423.942 160.562 422.653C159.275 421.363 158.552 419.614 158.552 417.791V314.743C158.552 312.968 159.258 311.266 160.516 310.009C161.774 308.752 163.481 308.043 165.263 308.038H207.606C211.852 308.038 214.4 310.108 215.252 314.248C215.417 315.035 215.334 315.842 215.004 316.667C213.682 319.867 211.286 321.467 207.816 321.467L174.3 321.409C173.651 321.409 173.327 321.734 173.327 322.381V358.591C173.327 359.251 173.658 359.575 174.319 359.562L203.851 359.505C207.473 359.492 210.13 361.086 211.82 364.286C212.214 365.035 212.341 365.816 212.201 366.629C211.502 370.946 208.967 373.092 204.594 373.067L174.757 372.896C173.804 372.883 173.327 373.352 173.327 374.305Z" fill="#3A4862"/>
<path d="M350.691 349.219C350.476 351.606 350.99 351.784 352.236 349.752C355.579 344.356 359.627 340.425 364.38 337.962C369.509 335.295 376.106 335.276 378.927 341.276C380.738 345.086 378.069 349.162 374.542 350.648C370.863 352.19 366.115 352.19 362.874 354.285C355.172 359.314 351.295 365.981 351.244 374.286C351.168 388.762 351.111 403.517 351.073 418.552C351.06 423.136 348.664 425.447 343.885 425.486C343.784 425.486 343.682 425.486 343.58 425.486C338.814 425.27 336.418 422.8 336.393 418.076C336.227 392.857 336.272 368.368 336.526 344.61C336.564 340.851 338.299 338.19 341.731 336.628C342.761 336.159 343.809 336.063 344.877 336.343C349.16 337.422 351.206 340.171 351.016 344.59C350.952 346.063 350.844 347.606 350.691 349.219Z" fill="#3A4862"/>
<path d="M420.872 426.152C410.567 426.17 400.676 421.433 393.375 412.984C386.073 404.534 381.959 393.064 381.939 381.096C381.928 375.17 382.923 369.3 384.866 363.823C386.809 358.344 389.662 353.365 393.263 349.169C396.864 344.972 401.141 341.641 405.852 339.365C410.562 337.089 415.612 335.913 420.715 335.904C431.02 335.886 440.912 340.623 448.214 349.073C455.516 357.522 459.628 368.993 459.65 380.96C459.658 386.886 458.666 392.756 456.72 398.234C454.779 403.712 451.923 408.691 448.322 412.888C444.721 417.084 440.444 420.415 435.734 422.691C431.025 424.967 425.975 426.143 420.872 426.152ZM430.002 351.104C420.298 346.514 408.611 349.771 402.929 358.78C397.451 367.479 395.818 378.234 398.03 391.047C399.803 401.218 406.532 411.39 417.552 412.743C425.916 413.771 432.607 411.117 437.628 404.781C444.206 396.476 445.064 385.085 444.11 374.628C443.252 365.333 438.828 355.257 430.002 351.104Z" fill="#3A4862"/>
<path d="M498.412 411.542C501.931 412.863 505.961 413.269 510.498 412.761C514.198 412.342 517.349 411.111 519.953 409.066C522.549 407.009 524.429 404.279 525.599 400.876C526.475 398.298 526.899 395.288 526.873 391.847C526.735 374.742 526.709 359.06 526.8 344.799C526.826 339.872 529.235 337.009 534.023 336.209C534.127 336.183 534.236 336.177 534.348 336.19C539.405 336.71 541.867 339.447 541.728 344.399C541.407 356.514 541.407 369.155 541.728 382.323C542.005 393.777 541.182 401.752 539.249 406.247C534.747 416.711 526.908 422.933 515.724 424.914C510.103 425.917 504.63 425.993 499.305 425.142C486.673 423.123 478.201 416.057 473.894 403.942C473.092 401.707 472.603 399.327 472.425 396.799C472.247 394.311 472.143 391.885 472.122 389.523C471.918 375.644 471.879 360.476 472.005 344.019C472.044 339.244 474.453 336.748 479.233 336.533C479.319 336.52 479.415 336.514 479.519 336.514C484.498 336.285 486.963 338.92 486.916 344.418C486.751 359.961 486.773 375.352 486.989 390.59C487.028 393.383 487.297 396.038 487.791 398.552C489.1 405.054 492.64 409.383 498.412 411.542Z" fill="#3A4862"/>
<path d="M574.691 346.82C579.098 340.661 584.719 337.277 591.544 336.667C595.89 336.267 601.307 335.905 605.558 337.162C618.445 340.984 627.094 349.511 631.506 362.743C636.931 378.959 635.579 394.051 627.445 408.019C620.911 419.245 611.239 425.15 598.425 425.734C589.134 426.166 581.326 422.737 574.995 415.448C574.028 414.331 573.565 414.508 573.604 415.981C573.868 427.219 573.946 439.188 573.833 451.885C573.738 462.8 559.191 463.086 559.191 452.951C559.152 417.423 559.156 380.731 559.208 342.877C559.208 335.829 568.248 334.115 572.269 339.143C573.929 341.201 573.491 343.981 573.565 346.476C573.604 347.683 573.976 347.797 574.691 346.82ZM596.826 413.467C599.89 413.462 602.927 412.618 605.757 410.984C608.587 409.35 611.161 406.957 613.323 403.943C615.485 400.929 617.201 397.352 618.367 393.417C619.533 389.481 620.131 385.264 620.122 381.007C620.113 376.75 619.502 372.535 618.324 368.604C617.141 364.673 615.416 361.102 613.241 358.095C611.07 355.089 608.487 352.706 605.653 351.081C602.815 349.457 599.777 348.624 596.709 348.629C593.645 348.634 590.608 349.478 587.778 351.112C584.948 352.746 582.374 355.139 580.212 358.153C578.05 361.167 576.334 364.744 575.168 368.68C574.002 372.615 573.404 376.831 573.413 381.089C573.422 385.346 574.033 389.561 575.211 393.492C576.394 397.423 578.119 400.994 580.294 404.001C582.465 407.007 585.048 409.391 587.882 411.015C590.72 412.639 593.758 413.472 596.826 413.467Z" fill="#3A4862"/>
<path d="M112.241 506.497C110.106 508.642 107.379 509.244 104.062 508.304C99.067 506.909 96.0419 503.633 94.9867 498.476C93.4999 491.261 95.1202 485.732 99.8487 481.884C104.081 478.443 108.142 478.374 112.031 481.676C113.315 482.768 113.944 482.477 113.919 480.8L113.709 469.811C113.684 468.03 114.56 467.142 116.34 467.142H117.084C117.579 467.142 118.054 467.341 118.404 467.696C118.755 468.047 118.952 468.528 118.952 469.027V506.341C118.952 506.978 118.717 507.502 118.246 507.923C117.484 508.573 116.639 508.711 115.711 508.343C115.139 508.1 114.688 507.706 114.357 507.16C114.192 506.896 113.995 506.662 113.766 506.458C113.245 505.973 112.736 505.986 112.241 506.497ZM107.016 504.361C109.054 504.356 111.006 503.277 112.444 501.358C113.881 499.434 114.686 496.834 114.681 494.121C114.679 492.778 114.478 491.447 114.09 490.208C113.701 488.964 113.133 487.838 112.418 486.889C111.703 485.944 110.855 485.19 109.922 484.679C108.989 484.167 107.989 483.903 106.98 483.903C104.943 483.907 102.99 484.991 101.553 486.91C100.115 488.83 99.3101 491.434 99.3148 494.147C99.317 495.49 99.5181 496.821 99.9063 498.06C100.295 499.299 100.863 500.426 101.578 501.375C102.293 502.324 103.141 503.074 104.074 503.589C105.008 504.101 106.007 504.365 107.016 504.361Z" fill="#3A4862"/>
<path d="M288.288 467.198H287.602C286.36 467.198 285.353 468.208 285.353 469.447V506.211C285.353 507.451 286.36 508.456 287.602 508.456H288.288C289.531 508.456 290.538 507.451 290.538 506.211V469.447C290.538 468.208 289.531 467.198 288.288 467.198Z" fill="#3A4862"/>
<path d="M22.1401 476.211L22.1783 485.732C22.1783 486.031 22.2968 486.317 22.5077 486.529C22.7187 486.737 23.0048 486.858 23.3031 486.858H32.626C32.9211 486.858 33.2043 486.971 33.4148 487.179C33.6252 487.387 33.7459 487.669 33.7509 487.963L33.789 490.685C33.7916 490.836 33.7638 490.988 33.7072 491.127C33.6506 491.265 33.5665 491.391 33.4597 491.499C33.353 491.608 33.2258 491.69 33.0859 491.746C32.9459 491.803 32.796 491.833 32.6451 491.829L23.3222 491.599C23.1712 491.599 23.0213 491.625 22.8814 491.681C22.7415 491.738 22.6143 491.82 22.5075 491.928C22.4008 492.037 22.3167 492.162 22.2601 492.301C22.2035 492.444 22.1757 492.591 22.1783 492.743L22.2164 507.047C22.2168 507.338 22.1061 507.615 21.9074 507.823C21.7087 508.031 21.437 508.157 21.1487 508.17L18.308 508.326C18.1571 508.33 18.0063 508.308 17.8644 508.256C17.7225 508.204 17.5925 508.126 17.4822 508.022C17.3719 507.918 17.2835 507.793 17.2223 507.658C17.1611 507.52 17.1283 507.368 17.126 507.221L17.1641 471.332C17.1641 471.033 17.2826 470.747 17.4936 470.539C17.7045 470.327 17.9906 470.21 18.289 470.21L33.9797 470.114C34.2563 470.11 34.5239 470.214 34.7314 470.396C34.9389 470.578 35.0717 470.829 35.1045 471.102L35.4286 473.75C35.4474 473.91 35.4329 474.066 35.386 474.218C35.3392 474.37 35.261 474.508 35.1567 474.625C35.0524 474.747 34.9242 474.842 34.7805 474.907C34.6368 474.972 34.4809 475.007 34.3229 475.011L23.265 475.085C22.9667 475.085 22.6805 475.202 22.4696 475.414C22.2586 475.626 22.1401 475.912 22.1401 476.211Z" fill="#3A4862"/>
<path d="M127.568 476.078C129.285 476.078 130.676 474.687 130.676 472.971C130.676 471.259 129.285 469.868 127.568 469.868C125.852 469.868 124.461 471.259 124.461 472.971C124.461 474.687 125.852 476.078 127.568 476.078Z" fill="#3A4862"/>
<path d="M223.162 495.162C220.168 489.732 212.238 490.36 207.872 485.979C203.105 481.182 205.469 474.552 210.655 471.658C215.383 469.006 220.315 469.339 225.45 472.667C226.517 473.365 226.797 474.297 226.288 475.467C226.085 475.974 225.583 476.407 224.783 476.762C224.39 476.944 223.954 477.009 223.524 476.949C223.095 476.888 222.691 476.702 222.361 476.42C218.205 472.875 210.769 473.408 210.941 480.229C210.954 480.94 211.201 481.555 211.685 482.075C216.26 486.933 225.011 485.715 227.795 492.553C229.358 496.388 229.008 499.937 226.746 503.2C222.323 509.6 213.82 509.618 207.471 506.935C206.01 506.311 205.26 505.215 205.221 503.638C205.209 503.243 205.266 502.875 205.393 502.533C205.505 502.255 205.679 502.008 205.9 501.805C206.122 501.601 206.387 501.449 206.675 501.363C206.963 501.276 207.268 501.254 207.567 501.298C207.867 501.341 208.153 501.454 208.405 501.618C213.782 505.219 220.111 506.038 223.257 498.763C223.816 497.493 223.785 496.293 223.162 495.162Z" fill="#3A4862"/>
<path d="M400.757 491.717C400.675 491.712 400.594 491.725 400.518 491.756C400.441 491.786 400.372 491.829 400.313 491.886C400.255 491.942 400.208 492.011 400.176 492.085C400.144 492.163 400.128 492.241 400.128 492.323L400.071 502.858C400.071 502.94 400.087 503.022 400.119 503.096C400.15 503.174 400.197 503.243 400.255 503.304C400.314 503.36 400.383 503.408 400.459 503.438C400.535 503.469 400.617 503.486 400.7 503.486L410.976 503.352C412.743 503.339 413.594 504.218 413.531 505.982V506.498C413.511 506.996 413.297 507.468 412.934 507.815C412.571 508.157 412.087 508.348 411.586 508.344L396.391 508.097C395.603 508.084 395.209 507.685 395.209 506.896L395.228 472.303C395.228 471.718 395.461 471.155 395.876 470.743C396.291 470.327 396.853 470.098 397.44 470.098L411.605 470.115C412.749 470.115 413.366 470.687 413.454 471.831L413.55 473.239C413.652 474.522 413.054 475.155 411.758 475.142L401.901 475.085C400.694 475.085 400.09 475.688 400.09 476.897L400.128 485.295C400.128 486.348 400.656 486.872 401.71 486.859L408.917 486.764C409.896 486.764 410.811 487.002 411.663 487.487C412.73 488.094 413.181 488.757 413.016 489.468C412.66 491.093 411.65 491.886 409.985 491.847L400.757 491.717Z" fill="#3A4862"/>
<path d="M553.753 476.055C555.451 476.055 556.825 474.686 556.825 472.992C556.825 471.297 555.451 469.924 553.753 469.924C552.058 469.924 550.685 471.297 550.685 472.992C550.685 474.686 552.058 476.055 553.753 476.055Z" fill="#3A4862"/>
<path d="M447.161 479.769C448.535 479.236 448.999 478.274 448.552 476.874C447.842 474.63 448.262 472.909 449.809 471.713C450.16 471.445 450.58 471.284 451.022 471.245C451.464 471.206 451.906 471.293 452.296 471.497C452.691 471.7 453.016 472.012 453.237 472.398C453.458 472.779 453.566 473.217 453.549 473.659L453.336 478.534C453.301 479.448 453.731 479.942 454.632 480.02C455.611 480.094 456.564 480.35 457.492 480.779C458.194 481.099 458.376 481.598 458.047 482.287C457.349 483.76 456.253 484.445 454.766 484.341C453.826 484.28 453.362 484.709 453.375 485.636L453.453 506.475C453.453 507.58 452.911 508.239 451.832 508.456C451.499 508.521 451.178 508.538 450.857 508.512C450.173 508.456 449.54 508.144 449.077 507.637C448.617 507.13 448.37 506.471 448.379 505.791L448.535 485.619C448.535 484.804 448.127 484.38 447.313 484.341L446.056 484.267C445.774 484.254 445.506 484.176 445.263 484.042C445.02 483.907 444.817 483.717 444.661 483.487L444.054 482.551C443.482 481.715 443.673 481.112 444.626 480.744L447.161 479.769Z" fill="#3A4862"/>
<path d="M48.3343 504.17C48.9445 504.374 49.5672 504.439 50.2029 504.361C54.4734 503.802 56.5898 501.366 56.5516 497.046L56.4372 481.316C56.4377 481.043 56.4957 480.779 56.6075 480.532C56.7193 480.285 56.8818 480.064 57.0855 479.886C58.2676 478.833 59.4814 479.054 60.7268 480.553C61.1194 481.03 61.3231 481.641 61.2988 482.265C61.1463 486.291 61.197 490.75 61.4513 495.638C61.8136 502.779 58.4388 508.287 50.6795 508.534C44.0066 508.763 38.6492 505.353 38.7827 498.437C38.9098 492.457 38.9543 486.728 38.9162 481.255C38.9162 480.189 39.4309 479.544 40.4604 479.314C41.4773 479.097 42.4369 479.682 43.3393 481.065C43.601 481.463 43.7401 481.936 43.7397 482.417L43.7206 497.674C43.7081 500.937 45.246 503.104 48.3343 504.17Z" fill="#3A4862"/>
<path d="M73.7879 482.001C79.4121 475.202 89.8979 481.849 89.6501 489.675C89.4468 495.811 89.4278 501.284 89.5929 506.094C89.6436 507.719 88.8558 508.564 87.2286 508.629C86.8984 508.655 86.5743 508.603 86.2566 508.477C85.1889 508.057 84.6611 507.277 84.6741 506.133L84.7885 489.887C84.8136 486.243 83.0027 484.38 79.3549 484.306L78.6685 484.284C74.2199 484.185 72.0082 486.347 72.0338 490.78L72.1482 506.324C72.1512 506.848 71.9597 507.359 71.6104 507.749C71.2616 508.139 70.7801 508.386 70.2606 508.438L69.6886 508.495C67.9219 508.685 67.0578 507.892 67.0959 506.116C67.2736 497.934 67.2992 489.9 67.1722 482.001C67.1466 480.744 67.6805 479.873 68.7734 479.392C69.4853 479.071 70.0829 479.219 70.5656 479.83L72.2626 481.979C72.7583 482.603 73.2666 482.607 73.7879 482.001Z" fill="#3A4862"/>
<path d="M142.612 481.62C144.69 480.095 146.921 478.838 149.59 479.371C156.225 480.649 159.085 485.867 158.818 492.267C158.614 497.181 158.639 501.683 158.894 505.774C158.996 507.499 158.176 508.4 156.434 508.478L155.71 508.513C155.459 508.526 155.208 508.491 154.973 508.404C154.737 508.313 154.522 508.183 154.34 508.01C154.158 507.837 154.013 507.629 153.914 507.399C153.816 507.165 153.765 506.918 153.765 506.667L153.803 490.898C153.803 486.413 151.56 484.211 147.073 484.285L146.082 484.307C145.393 484.315 144.713 484.458 144.081 484.731C143.449 485.004 142.877 485.399 142.397 485.893C141.917 486.387 141.539 486.972 141.285 487.609C141.031 488.25 140.905 488.93 140.915 489.619L141.163 505.258C141.189 506.745 140.54 507.824 139.218 508.495C138.456 508.89 137.579 508.686 136.588 507.884C136.295 507.646 136.06 507.347 135.898 507.013C135.737 506.675 135.653 506.311 135.653 505.943C135.666 498.247 135.672 490.603 135.672 483.011C135.672 481.256 136.441 480.025 137.979 479.315C138.325 479.154 138.719 479.128 139.081 479.25C139.443 479.371 139.745 479.627 139.924 479.96L140.572 481.161C141.08 482.101 141.76 482.253 142.612 481.62Z" fill="#3A4862"/>
<path d="M176.433 520H173.859C170.288 519.276 167.11 517.916 164.327 515.922C163.984 515.684 163.741 515.324 163.643 514.913C163.545 514.505 163.598 514.072 163.793 513.695L164.117 513.067C164.88 511.554 165.928 511.32 167.263 512.36C173.649 517.37 180.742 516.59 183.201 508.001C183.9 505.509 183.214 505.041 181.142 506.588C172.754 512.837 163.983 504.456 163.221 495.829C162.522 487.803 165.686 482.439 172.716 479.735C175.74 478.578 178.524 479.275 181.066 481.828C181.829 482.59 182.489 482.508 183.049 481.581L184.059 479.904C184.403 479.319 184.904 479.098 185.565 479.236C187.186 479.561 188.063 480.857 188.006 482.456C187.764 489.632 187.777 497.103 188.044 504.877C188.292 512.685 184.231 518.345 176.433 520ZM175.553 504.417C177.525 504.409 179.41 503.317 180.795 501.384C182.179 499.451 182.948 496.838 182.934 494.113C182.92 491.391 182.123 488.783 180.718 486.867C179.314 484.948 177.417 483.877 175.445 483.886C173.473 483.895 171.588 484.987 170.204 486.919C168.819 488.852 168.049 491.469 168.064 494.191C168.078 496.912 168.875 499.521 170.279 501.44C171.684 503.356 173.581 504.43 175.553 504.417Z" fill="#3A4862"/>
<path d="M238.261 487.145C235.656 491.842 235.522 496.154 237.861 500.076C240.555 504.595 244.203 505.505 248.804 502.801C249.351 502.472 249.935 502.39 250.558 502.554C251.868 502.884 252.242 503.989 251.683 505.865C251.522 506.415 251.211 506.909 250.783 507.295C250.355 507.676 249.829 507.936 249.262 508.04C237.327 510.081 231.385 505.029 231.436 492.878C231.493 482.495 242.303 475.371 251.321 481.598C251.717 481.876 251.992 482.292 252.092 482.76C252.191 483.232 252.106 483.722 251.855 484.133C251.601 484.567 251.232 484.853 250.749 484.991C250.037 485.221 249.338 485.212 248.652 484.97C245.315 483.847 240.32 483.449 238.261 487.145Z" fill="#3A4862"/>
<path d="M274.162 505.522C269.529 510.952 260.816 508.82 257.384 503.031C254.156 497.566 253.927 491.989 256.698 486.287C259.672 480.19 268.175 476.324 273.647 482.209C274.435 483.05 274.988 482.915 275.306 481.81L275.782 480.133C275.96 479.496 276.373 479.206 277.022 479.258C278.763 479.371 279.633 480.268 279.633 481.945C279.633 489.602 279.64 497.861 279.652 506.723C279.652 506.996 279.584 507.269 279.455 507.507C279.325 507.745 279.137 507.949 278.909 508.096C278.121 508.616 277.282 508.655 276.392 508.209C275.642 507.828 275.306 507.225 275.382 506.402C275.394 506.198 275.375 505.986 275.325 505.769C275.096 504.972 274.708 504.89 274.162 505.522ZM267.36 504.344C268.366 504.348 269.365 504.092 270.298 503.581C271.232 503.074 272.082 502.324 272.8 501.38C273.519 500.431 274.091 499.308 274.485 498.065C274.879 496.825 275.086 495.495 275.096 494.147C275.105 492.804 274.916 491.469 274.54 490.221C274.163 488.978 273.607 487.842 272.901 486.889C272.196 485.931 271.357 485.169 270.431 484.649C269.505 484.129 268.51 483.856 267.503 483.847C266.497 483.843 265.498 484.098 264.565 484.605C263.632 485.117 262.781 485.866 262.063 486.811C261.344 487.76 260.772 488.882 260.379 490.126C259.985 491.365 259.777 492.696 259.768 494.043C259.758 495.387 259.947 496.721 260.324 497.969C260.7 499.213 261.257 500.348 261.962 501.302C262.667 502.259 263.506 503.022 264.432 503.542C265.359 504.062 266.353 504.335 267.36 504.344Z" fill="#3A4862"/>
<path d="M302.303 495.924C299.735 495.924 299.087 497.033 300.358 499.256C300.688 499.828 300.93 500.24 301.082 500.495C302.417 502.818 304.419 504.075 307.088 504.265C310.393 504.495 313.214 503.481 315.553 501.219C316.608 500.214 317.689 500.192 318.794 501.141C319.01 501.332 319.182 501.557 319.309 501.808C319.716 502.723 319.557 503.529 318.832 504.226C316.074 506.805 312.922 508.209 309.376 508.438C300.314 509.036 295.42 504.621 294.695 495.2C294.187 488.583 296.774 483.712 302.455 480.592C311.721 475.483 320.548 485.333 319.824 494.437C319.735 495.443 319.188 495.941 318.184 495.941L302.303 495.924ZM300.796 492.154L313.875 492.115C314.088 492.115 314.291 492.028 314.442 491.881C314.591 491.729 314.676 491.525 314.676 491.313V491.066C314.671 489.255 314.004 487.521 312.821 486.243C311.638 484.965 310.036 484.25 308.365 484.245H306.307C305.476 484.245 304.654 484.423 303.887 484.77C303.12 485.112 302.423 485.619 301.837 486.256C301.251 486.893 300.786 487.651 300.47 488.483C300.155 489.315 299.993 490.204 299.996 491.105V491.352C299.996 491.564 300.08 491.768 300.23 491.92C300.38 492.067 300.584 492.154 300.796 492.154Z" fill="#3A4862"/>
<path d="M340.032 502.173C340.602 501.657 341.059 501.025 341.371 500.323C341.683 499.621 341.844 498.862 341.843 498.095L341.862 481.412C341.862 480.19 342.459 479.488 343.654 479.297C343.959 479.232 344.258 479.271 344.55 479.41C346.139 480.108 346.908 481.321 346.857 483.05C346.647 491.903 349.984 508.513 335.456 508.573C320.166 508.63 324.131 492.211 323.617 482.916C323.528 481.226 324.271 480.056 325.847 479.41C326.381 479.18 326.959 479.193 327.582 479.449C328.002 479.609 328.364 479.895 328.619 480.264C328.874 480.636 329.011 481.074 329.012 481.525L329.107 498.399C329.12 501.397 330.576 503.291 333.473 504.075C335.749 504.699 337.934 504.062 340.032 502.173Z" fill="#3A4862"/>
<path d="M357.573 506.991L357.821 517.179C357.859 518.843 357.046 519.644 355.381 519.579L354.466 519.54C353.945 519.523 353.452 519.302 353.093 518.925C352.733 518.548 352.535 518.045 352.54 517.525C352.642 505.284 352.648 493.575 352.559 482.399C352.559 481.459 352.877 480.64 353.513 479.942C354.046 479.37 354.676 479.154 355.4 479.297C355.822 479.37 356.213 479.561 356.528 479.851C356.842 480.146 357.066 480.519 357.173 480.935C357.262 481.251 357.408 481.55 357.611 481.827C358.056 482.451 358.539 482.482 359.061 481.923C365.257 475.275 374.427 481.827 376.448 488.665C379.441 498.74 373.721 511.524 361.253 507.923C360.749 507.775 360.315 507.45 360.033 507.008C359.791 506.614 359.473 506.306 359.08 506.077C358.037 505.492 357.535 505.795 357.573 506.991ZM364.788 504.4C366.76 504.421 368.664 503.368 370.082 501.462C371.5 499.555 372.315 496.959 372.348 494.242C372.382 491.525 371.63 488.908 370.259 486.971C368.889 485.03 367.01 483.929 365.039 483.903C363.067 483.881 361.163 484.939 359.745 486.841C358.327 488.748 357.512 491.343 357.478 494.06C357.445 496.777 358.197 499.395 359.568 501.332C360.939 503.273 362.816 504.374 364.788 504.4Z" fill="#3A4862"/>
<path d="M424.663 482.058C427.237 479.982 430.192 478.608 433.607 479.618C438.967 481.208 441.623 485.143 441.576 491.431C441.55 496.189 441.563 500.903 441.61 505.562C441.623 507.174 440.843 508.144 439.266 508.478C438.937 508.539 438.612 508.547 438.295 508.495C436.883 508.253 436.176 507.421 436.176 505.999L436.198 489.676C436.211 486.135 434.439 484.337 430.878 484.285H429.963C429.107 484.276 428.258 484.437 427.465 484.757C426.672 485.078 425.95 485.555 425.343 486.157C424.736 486.759 424.256 487.479 423.929 488.267C423.603 489.06 423.438 489.905 423.443 490.763L423.576 506.077C423.576 507.321 422.979 508.101 421.784 508.417C421.416 508.508 421.04 508.521 420.659 508.456C419.121 508.14 418.371 507.2 418.41 505.64C418.613 498.121 418.625 490.434 418.448 482.573C418.41 480.953 419.821 479.583 421.288 479.18C421.513 479.12 421.751 479.124 421.972 479.202C422.193 479.276 422.387 479.414 422.528 479.601C422.96 480.147 423.201 480.762 423.252 481.447C423.328 482.552 423.799 482.755 424.663 482.058Z" fill="#3A4862"/>
<path d="M464.13 497.142C465.79 506.151 475.167 505.752 481.156 500.63C481.407 500.422 481.724 500.31 482.049 500.31C482.369 500.31 482.681 500.422 482.928 500.63C483.171 500.843 483.366 501.094 483.522 501.371C483.773 501.826 483.877 502.346 483.817 502.862C483.756 503.373 483.531 503.854 483.175 504.227C476.753 511.16 465.235 509.561 461.136 502.303C458.952 498.42 458.467 494.278 459.689 489.888C461.652 482.781 469.43 476.364 476.827 480.532C482.521 483.735 484.891 488.501 483.938 494.837C483.886 495.157 483.721 495.448 483.47 495.656C483.223 495.868 482.911 495.981 482.586 495.981L465.14 495.942C464.33 495.942 463.992 496.345 464.13 497.142ZM464.607 492.115L479.21 492.154C479.314 492.154 479.41 492.111 479.479 492.042C479.553 491.968 479.592 491.873 479.592 491.773V491.504C479.596 490.547 479.401 489.602 479.028 488.714C478.651 487.83 478.097 487.024 477.399 486.348C476.701 485.672 475.874 485.134 474.959 484.766C474.049 484.398 473.07 484.211 472.082 484.211H471.74C469.751 484.211 467.84 484.974 466.431 486.335C465.023 487.695 464.23 489.541 464.226 491.465V491.734C464.226 491.782 464.234 491.834 464.256 491.881C464.273 491.925 464.304 491.968 464.338 492.003C464.373 492.037 464.416 492.068 464.46 492.085C464.507 492.107 464.559 492.115 464.607 492.115Z" fill="#3A4862"/>
<path d="M493.164 481.85C493.597 483.692 494.347 483.83 495.417 482.266C496.713 480.39 498.204 479.41 499.898 479.332C501.09 479.285 501.878 479.861 502.26 481.066C502.849 482.933 501.514 484.459 499.725 484.784C495.491 485.529 493.363 488.38 493.337 493.333C493.298 497.779 493.294 502.23 493.32 506.684C493.324 507.083 493.194 507.469 492.947 507.776C492.7 508.088 492.354 508.309 491.964 508.4C491.673 508.465 491.379 508.504 491.088 508.513C490.742 508.522 490.395 508.461 490.07 508.331C489.745 508.205 489.45 508.015 489.203 507.772C488.956 507.529 488.757 507.239 488.623 506.918C488.488 506.598 488.419 506.251 488.419 505.904L488.436 482.535C488.436 481.2 489.021 480.216 490.191 479.584C490.993 479.137 491.76 479.168 492.497 479.679C492.917 479.956 493.108 480.351 493.069 480.858C493.06 481.2 493.09 481.529 493.164 481.85Z" fill="#3A4862"/>
<path d="M509.388 520H506.034C504.903 507.91 504.604 495.543 505.137 482.894C505.176 482.044 505.449 481.243 505.956 480.497C506.35 479.912 506.853 479.518 507.464 479.314C508.53 478.985 509.288 479.327 509.73 480.341L510.19 481.429C510.61 482.382 511.186 482.491 511.923 481.754C514.059 479.644 516.443 478.864 519.073 479.41C528.13 481.277 531.388 489.961 529.577 498.381C527.787 506.762 519.303 511.866 511.754 506.151C511.117 505.683 510.762 505.843 510.684 506.627L509.388 520ZM517.829 504.361C518.809 504.352 519.775 504.079 520.676 503.555C521.573 503.035 522.388 502.272 523.073 501.315C523.757 500.357 524.295 499.222 524.659 497.974C525.023 496.73 525.205 495.395 525.192 494.048C525.183 492.704 524.979 491.374 524.594 490.135C524.208 488.891 523.649 487.769 522.947 486.824C522.245 485.875 521.417 485.13 520.507 484.623C519.602 484.116 518.627 483.86 517.652 483.869C516.672 483.877 515.702 484.15 514.805 484.67C513.903 485.195 513.089 485.957 512.404 486.915C511.719 487.873 511.182 489.008 510.818 490.252C510.454 491.5 510.272 492.834 510.285 494.178C510.298 495.525 510.502 496.856 510.887 498.095C511.273 499.334 511.832 500.461 512.53 501.406C513.232 502.35 514.059 503.1 514.969 503.607C515.879 504.114 516.85 504.37 517.829 504.361Z" fill="#3A4862"/>
<path d="M540.735 482.265L544.605 479.427C545.038 479.106 545.575 478.954 546.113 478.993C546.646 479.037 547.148 479.271 547.521 479.656C549.675 481.884 548.019 484.553 545.445 484.991C541.974 485.563 539.725 488.687 539.799 492.171C539.916 496.868 539.959 501.423 539.933 505.83C539.933 506.146 539.868 506.462 539.743 506.757C539.621 507.052 539.439 507.32 539.21 507.541C538.33 508.417 537.472 508.768 536.636 508.59C535.301 508.313 534.634 507.494 534.634 506.133V482.113C534.634 481.481 534.829 480.874 535.188 480.38C536.28 478.894 537.355 478.729 538.408 479.886C538.928 480.445 539.262 481.073 539.4 481.771C539.578 482.633 540.024 482.798 540.735 482.265Z" fill="#3A4862"/>
<path d="M576.268 502.021C576.507 501.731 576.671 501.393 576.758 501.033C576.845 500.669 576.849 500.292 576.767 499.928C576.684 499.568 576.524 499.226 576.29 498.936C576.06 498.645 575.766 498.407 575.432 498.247C571.731 496.47 568.282 494.767 565.08 493.142C560.252 490.707 560.465 484.688 564.677 481.693C569.786 478.101 574.934 478.521 580.121 482.954C580.957 483.665 581.195 484.54 580.827 485.58C580.71 485.875 580.528 486.1 580.272 486.265C579.089 487.015 577.941 486.971 576.823 486.135C573.911 483.938 570.886 483.561 567.745 485.008C567.363 485.19 567.034 485.468 566.796 485.823C566.562 486.174 566.423 486.586 566.406 487.01C566.384 487.435 566.484 487.855 566.683 488.228C566.887 488.601 567.19 488.908 567.554 489.125C570.176 490.611 572.997 491.916 576.021 493.047C582.066 495.313 583.665 501.809 578.613 506.133C573.846 510.189 564.334 509.162 560.235 504.019C559.867 503.551 559.828 503.048 560.122 502.515C560.564 501.752 561.193 501.189 562.007 500.821C562.324 500.682 562.67 500.639 563.004 500.695C563.342 500.747 563.658 500.894 563.914 501.124C567.251 504.114 572.932 506.116 576.268 502.021Z" fill="#3A4862"/>
<path d="M591.218 495.963C588.713 495.963 588.111 497.033 589.407 499.182L590.226 500.534C591.703 502.996 593.883 504.248 596.765 504.287C600.084 504.348 603.026 503.199 605.592 500.838C606.38 500.114 607.13 500.144 607.845 500.933C608.72 501.86 608.166 503.347 606.185 505.392C605.397 506.202 604.487 506.844 603.46 507.316C595.621 510.817 586.451 507.524 584.584 498.532C580.35 478.153 605.574 471.258 609.253 491.772C609.765 494.563 608.599 495.963 605.765 495.963H591.218ZM589.272 492.154L603.724 492.076C603.837 492.076 603.945 492.032 604.023 491.954C604.101 491.876 604.144 491.768 604.144 491.655V491.43C604.14 490.472 603.945 489.528 603.568 488.648C603.187 487.764 602.636 486.967 601.947 486.295C601.254 485.623 600.435 485.09 599.529 484.731C598.628 484.367 597.666 484.185 596.691 484.189H596.232C594.264 484.202 592.384 484.978 591.001 486.347C589.615 487.721 588.843 489.575 588.856 491.504V491.733C588.856 491.846 588.9 491.95 588.978 492.028C589.056 492.106 589.164 492.154 589.272 492.154Z" fill="#3A4862"/>
<path d="M627.02 502.342C627.315 502.013 627.527 501.618 627.64 501.189C627.748 500.76 627.757 500.314 627.657 499.881C627.557 499.452 627.358 499.049 627.072 498.711C626.782 498.373 626.418 498.113 626.01 497.944C622.21 496.371 618.873 494.668 616 492.839C611.385 489.892 610.917 486.534 614.592 482.764C618.873 478.357 624.169 478.158 630.469 482.17C631.769 482.998 632.181 484.142 631.709 485.602C631.648 485.828 631.527 486.014 631.349 486.153C630.305 487.015 629.252 487.037 628.181 486.209C625.386 484.038 622.24 483.587 618.748 484.857C618.418 484.978 618.124 485.173 617.885 485.429C617.647 485.689 617.474 485.997 617.378 486.335C617.283 486.668 617.27 487.024 617.339 487.366C617.409 487.708 617.556 488.029 617.773 488.306C618.613 489.351 619.926 490.265 621.226 490.646C625.126 491.803 628.467 493.55 631.254 495.885C631.787 496.332 632.116 496.904 632.246 497.601C634.551 509.83 620.29 510.437 613.14 505.96C611.706 505.072 611.242 503.824 611.749 502.208C611.827 501.982 611.94 501.766 612.092 501.562C612.958 500.418 613.929 500.323 615.008 501.276C618.176 504.097 623.857 505.943 627.02 502.342Z" fill="#3A4862"/>
<path d="M127.76 479.487H127.57C126.117 479.487 124.938 480.662 124.938 482.113V505.925C124.938 507.377 126.117 508.551 127.57 508.551H127.76C129.213 508.551 130.391 507.377 130.391 505.925V482.113C130.391 480.662 129.213 479.487 127.76 479.487Z" fill="#3A4862"/>
<path d="M554.026 479.527L553.874 479.523C552.422 479.514 551.235 480.684 551.226 482.136L551.062 505.83C551.049 507.282 552.219 508.465 553.67 508.474L553.826 508.478C555.278 508.487 556.465 507.317 556.474 505.865L556.639 482.17C556.652 480.719 555.482 479.536 554.026 479.527Z" fill="#3A4862"/>
</g>
</svg>
