<svg width="1629" height="325" viewBox="0 0 1629 325" fill="none" xmlns="http://www.w3.org/2000/svg">
<path d="M163.005 3.84375C94.5293 29.4764 50.5272 91.933 56.5465 165.185C59.5611 201.792 74.398 234.141 101.057 262.233C105.297 266.717 106.201 266.124 103.77 260.452C87.9069 223.468 87.5392 184.6 102.668 143.848C104.496 142.605 106.135 142.605 107.586 143.848C108.66 144.79 109.272 146.005 109.423 147.494C109.724 150.828 111.363 153.749 114.34 156.255C115.169 156.952 115.461 157.828 115.216 158.883C114.971 159.9 115.357 160.56 116.375 160.861C117.091 161.068 117.6 161.511 117.901 162.189C118.033 162.491 118.07 162.821 118.014 163.178C117.863 164.177 118.146 165.044 118.862 165.778L135.055 182.82C135.658 183.441 136.346 183.95 137.118 184.346C137.947 184.761 138.607 185.401 139.097 186.268C140.764 189.263 144.466 191.807 146.953 194.181C148.554 195.726 150.42 197.044 152.549 198.137C154.64 199.211 156.487 200.587 158.088 202.263C158.728 202.923 159.501 203.215 160.405 203.139C161.894 203.045 162.874 203.724 163.344 205.174C163.57 205.834 164.023 206.116 164.701 206.022C166.679 205.758 168.243 206.502 169.392 208.255C169.75 208.782 170.24 208.98 170.862 208.848C171.295 208.735 171.719 208.726 172.134 208.82C172.944 208.971 173.66 209.31 174.281 209.837C177.56 212.72 181.309 214.312 185.529 214.613C186.528 214.689 187.423 215.028 188.214 215.631C189.702 216.742 191.379 217.261 193.244 217.185C194.318 217.148 195.27 217.487 196.099 218.202C198.454 220.256 201.619 220.859 205.594 220.011C205.897 219.943 206.209 219.952 206.502 220.036C206.794 220.12 207.055 220.277 207.262 220.491C209.033 222.3 211.228 223.158 213.847 223.063C222.89 222.705 232.065 223.45 241.373 225.296C209.833 261.903 169.92 281.111 121.631 282.92C120.67 282.958 120.473 283.363 121.038 284.135L146.755 320.252C87.2377 303.899 48.172 268.045 29.5574 212.691C20.5328 185.806 19.5719 156.773 26.6748 125.591C30.6125 108.296 37.998 91.3581 48.8314 74.7784C73.0793 37.7284 116.997 8.28072 163.005 3.84375Z" fill="#3A4862"/>
<path d="M222.976 6.44336C278.273 21.3274 316.481 55.0711 337.602 107.674C334.361 111.668 332.477 116.567 331.95 122.37C331.874 123.274 331.478 124.018 330.763 124.602C329.99 125.224 329.604 126.034 329.604 127.033C329.604 127.552 329.467 128.067 329.208 128.53L312.421 157.724C307.805 116.821 289.973 82.7102 258.923 55.391C256.399 54.4493 254.694 51.9435 253.808 47.8738L251.717 44.6238L222.976 6.44336Z" fill="#3A4862"/>
<path d="M1069.22 175.697C1071.08 170.271 1071.63 164.337 1070.86 157.893C1069.33 145.261 1059.33 135.793 1049.61 128.671C1037.02 119.42 1025.04 110.01 1013.66 100.439C1004.5 92.7235 994.893 82.4366 992.124 70.4823C986.162 44.5105 998.992 23.0322 1025.13 15.6844C1033.52 13.3105 1045.87 12.1518 1055.2 13.3953C1062.07 14.2713 1069.22 13.1974 1075.58 15.9105C1078.39 17.1163 1081.34 17.4271 1084.45 16.8431C1084.69 16.7981 1084.95 16.8122 1085.19 16.8844C1085.42 16.9566 1085.64 17.0846 1085.81 17.2573C1085.99 17.43 1086.12 17.6422 1086.19 17.8753C1086.27 18.1085 1086.28 18.3556 1086.23 18.5953C1084.44 28.7315 1083.78 38.9053 1084.25 49.1168C1084.26 49.3162 1084.23 49.5148 1084.15 49.6972C1084.07 49.8795 1083.94 50.0406 1083.79 50.167C1083.64 50.2933 1083.46 50.3822 1083.26 50.4255C1083.07 50.4688 1082.86 50.466 1082.67 50.4168C1081.78 50.1908 1081.23 49.6257 1081 48.7214C1078.52 38.4626 1076.26 30.4083 1065.06 26.254C1051.1 21.0351 1037.96 20.9503 1025.64 25.9996C1006.59 33.7713 1003.82 55.1647 1016.54 69.5496C1038.19 94.0517 1083.29 108.154 1090.19 143.226C1091.01 147.352 1092.59 151.789 1092.19 155.915C1090.18 178.297 1078.91 193.615 1058.39 201.867C1053.25 203.93 1048.19 203.421 1042.99 205.258C1040.86 205.993 1038.7 206.351 1036.49 206.332C1028.18 206.219 1017.98 207.519 1010.01 204.863C1006.81 203.789 1003.6 203.299 1000.37 203.393C999.31 203.429 998.262 203.133 997.381 202.545C995.648 201.358 993.734 200.633 991.643 200.369C989.96 200.145 988.411 199.335 987.263 198.079C986.118 196.824 985.447 195.204 985.367 193.502C984.916 183.592 985.53 173.474 987.205 163.15C987.375 162.132 987.866 161.341 988.675 160.776C988.902 160.625 989.148 160.55 989.412 160.55C990.278 160.531 990.737 160.945 990.795 161.793C991.737 179.805 1000.53 190.638 1017.19 194.293C1022.16 195.367 1028.47 195.829 1036.1 195.678C1043.43 195.546 1049.51 194.208 1054.35 191.665C1061.97 187.67 1066.92 182.348 1069.22 175.697Z" fill="#3A4862"/>
<path d="M900.416 164.45C900.849 159.25 900.889 154.031 900.528 148.794C898.119 114.73 897.224 78.5088 897.845 40.1306C897.928 33.3761 896.686 24.0217 888.463 22.213C883.357 21.1015 878.211 20.1689 873.033 19.4152C872.842 19.3964 872.759 19.2928 872.777 19.1044L872.806 18.1435C872.82 17.8311 872.954 17.5363 873.181 17.3205C873.409 17.1047 873.708 16.9845 874.023 16.9848L930.233 16.9565C930.703 16.9565 931.078 17.2674 931.363 17.8891C931.439 18.0964 931.41 18.3602 931.277 18.6804C931.165 18.9819 930.937 19.1797 930.598 19.2739C924.975 20.8565 920.339 20.5739 915.789 25.0957C915.113 25.7739 914.745 26.5841 914.687 27.5261C914.518 30.6348 914.424 33.6399 914.406 36.5412C913.99 89.6906 913.286 143.471 912.286 197.883C912.268 199.22 912.105 200.605 911.806 202.037C911.221 204.694 909.866 205.174 907.736 203.478C897.997 195.791 888.236 187.106 878.457 177.422C837.875 137.141 798.308 96.3885 759.763 55.1651C758.272 53.5827 757.575 53.8651 757.673 56.013C758.037 65.2827 759.648 74.5239 759.395 83.7088C758.471 120.316 759.384 154.653 762.136 186.72C762.645 192.994 767.675 198.42 774.374 198.024C777.425 197.854 780.448 197.986 783.445 198.42C784.312 198.551 784.734 199.051 784.716 199.917L784.658 201.867C784.64 202.659 784.247 203.054 783.474 203.054L726.473 202.97C725.678 202.97 725.292 202.574 725.313 201.783L725.368 200.031C725.382 199.567 725.57 199.127 725.895 198.797C726.22 198.466 726.657 198.271 727.122 198.25L735.937 197.741C737.335 197.657 738.671 197.153 739.769 196.295C740.87 195.437 741.683 194.266 742.098 192.937C744.041 186.814 745.019 180.87 745.037 175.104C745.131 127.004 745.171 74.1188 745.153 16.4478C745.149 16.0162 745.239 15.5889 745.409 15.1928C745.583 14.7967 745.832 14.4402 746.149 14.1458C746.464 13.8513 746.836 13.6252 747.244 13.4815C747.652 13.3379 748.085 13.2798 748.515 13.3109C749.569 13.3863 750.577 13.7913 751.537 14.5261C755.589 17.5971 758.875 20.4891 761.403 23.2022C787.627 51.5385 813.883 78.9233 840.165 105.357C859.722 125.054 878.486 146.25 897.646 165.467C899.304 167.144 900.228 166.805 900.416 164.45Z" fill="#3A4862"/>
<path d="M1220.56 17.6632C1237.2 12.2654 1259.39 12.6893 1276.17 14.8372C1295.5 17.2864 1312.55 25.0111 1327.33 38.0111C1350.95 58.8111 1357.82 85.3762 1355.76 115.813C1353.52 148.822 1332.72 179.88 1304.8 193.841C1280.78 205.862 1255.3 209.112 1228.36 203.591C1210.17 199.88 1195 192.315 1182.83 180.898C1170.32 169.123 1161.62 154.992 1156.74 138.507C1148.17 109.587 1152.41 82.1544 1169.46 56.2111C1181.67 37.6341 1198.7 24.785 1220.56 17.6632ZM1283.8 28.5719C1273.44 23.6169 1261.06 21.6009 1246.67 22.5241C1224.15 23.956 1206.93 32.5567 1195.01 48.3262C1179.04 69.4653 1177.85 95.7199 1180.71 121.211C1184.83 158.233 1211.2 190.62 1248.96 194.802C1268.36 196.95 1284.5 193.861 1297.37 185.533C1313.21 175.284 1323.27 159.872 1327.55 139.298C1336.37 96.9914 1325.43 48.4393 1283.8 28.5719Z" fill="#3A4862"/>
<path d="M596.555 98.9692C608.848 98.8847 621.512 98.6301 634.086 99.054C639.513 99.2238 644.637 98.3383 649.458 96.3977C650.448 95.9882 651.336 95.361 652.062 94.5607C653.116 93.3925 654.395 92.6013 655.904 92.1868C656.193 92.1077 656.5 92.1185 656.782 92.2182C657.063 92.3179 657.309 92.5013 657.482 92.7443C657.659 92.987 657.757 93.2777 657.76 93.5771C657.767 93.8764 657.681 94.1704 657.515 94.4192C655.799 97.0383 654.915 99.8738 654.857 102.926C654.745 110.142 654.424 117.376 653.896 124.63C653.802 125.949 653.124 126.806 651.863 127.202L650.874 127.485C650.596 127.569 650.3 127.578 650.014 127.51C649.733 127.442 649.473 127.301 649.263 127.099C649.054 126.898 648.899 126.644 648.819 126.364C648.74 126.084 648.736 125.788 648.808 125.506C650.874 117.424 645.587 110.5 637.477 110.245C624.119 109.869 610.386 109.473 596.274 109.059C596.104 109.055 595.934 109.085 595.779 109.147C595.62 109.209 595.476 109.302 595.357 109.421C595.234 109.539 595.14 109.681 595.071 109.837C595.006 109.993 594.974 110.161 594.974 110.33V178.722C594.974 182.092 596.263 185.334 598.574 187.787C600.885 190.24 604.045 191.718 607.407 191.919C618.901 192.598 631.099 192.635 644.005 192.032C656.186 191.439 661.444 182.085 663.422 171.43C663.592 170.507 664.127 169.923 665.033 169.678C665.333 169.603 665.614 169.716 665.878 170.017C666.217 170.394 666.398 170.837 666.416 171.345C666.698 180.144 665.596 189.084 663.108 198.165C662.224 201.424 660.075 203.12 656.666 203.252C636.902 203.93 615.85 203.657 593.504 202.432C580.533 201.726 568.266 203.167 555.494 203.45C553.76 203.487 552.94 202.649 553.034 200.935L553.092 199.55C553.11 198.872 553.468 198.495 554.165 198.419L563.517 197.6C563.99 197.557 564.445 197.402 564.85 197.146C565.251 196.891 565.59 196.543 565.836 196.13C567.674 193.022 569.678 189.376 569.794 185.702C571.263 134.305 571.339 82.2107 570.017 29.4193C569.978 27.8194 569.429 26.2739 568.454 25.0046C567.479 23.7353 566.128 22.8074 564.594 22.3541C560.314 21.073 555.681 20.2157 550.687 19.7824C549.86 19.707 549.463 19.2548 549.503 18.4258L549.528 17.6063C549.535 17.4388 549.607 17.2807 549.73 17.1648C549.849 17.049 550.012 16.9844 550.178 16.9845C583.093 16.9469 616.102 16.9374 649.205 16.9563C652.878 16.9563 655.366 15.5997 658.645 14.2432C659.811 13.7345 660.414 14.1208 660.454 15.4019C660.566 20.3947 660.003 24.8693 658.757 28.8258C657.146 33.9693 657.403 39.3107 657.544 44.6238C657.58 45.6222 657.128 46.291 656.186 46.6301C654.904 47.1201 653.972 46.715 653.387 45.415C652.087 42.6077 651.571 39.6119 651.834 36.428C651.928 35.2976 651.56 34.365 650.733 33.6302C646.963 30.2389 642.933 28.4584 638.636 28.2889C624.921 27.7614 611.108 27.2432 597.206 26.7345C595.736 26.678 595.003 27.3845 595.003 28.8541V97.415C595.003 98.4701 595.519 98.9883 596.555 98.9692Z" fill="#3A4862"/>
<path d="M1435.48 57.9353C1437.5 87.1192 1438.14 116.36 1437.4 145.657C1437.03 159.9 1439.35 174.002 1440.57 187.992C1440.99 193.05 1445.85 197.939 1451.16 197.911C1454.76 197.893 1458.22 198.052 1461.54 198.392C1462.44 198.486 1462.89 198.995 1462.89 199.918L1462.86 201.896C1462.86 202.687 1462.48 203.083 1461.71 203.083L1404.79 202.97C1404.04 202.97 1403.66 202.593 1403.66 201.839L1403.63 199.833C1403.62 199.43 1403.77 199.04 1404.05 198.745C1404.33 198.45 1404.72 198.272 1405.13 198.25L1414.26 197.742C1415.92 197.648 1417.49 196.946 1418.68 195.768C1419.86 194.591 1420.57 193.02 1420.67 191.355C1420.87 187.737 1422.9 184.6 1422.9 180.87C1422.85 128.983 1422.48 73.9874 1423.33 16.8722C1423.34 16.093 1423.58 15.3341 1424.02 14.6918C1424.46 14.0495 1425.08 13.5529 1425.8 13.2651C1426.53 12.9773 1427.32 12.9113 1428.08 13.0755C1428.84 13.2398 1429.54 13.6268 1430.08 14.1874L1576.56 166.118C1578.2 167.813 1578.95 167.493 1578.82 165.157C1576.61 124.895 1575.63 83.304 1575.85 40.3853C1575.88 33.5461 1574.89 24.0221 1566.67 22.2417C1561.62 21.1489 1556.48 20.2635 1551.26 19.5852C1551.04 19.5663 1550.94 19.4439 1550.95 19.2178L1550.98 18.2569C1551 17.9368 1551.13 17.6347 1551.37 17.4135C1551.61 17.1924 1551.93 17.0693 1552.25 17.07L1608.95 16.9287C1609.4 16.9287 1609.62 17.1548 1609.62 17.6069L1609.65 18.483C1609.65 18.6388 1609.63 18.7939 1609.57 18.9393C1609.51 19.0847 1609.43 19.2176 1609.31 19.3305C1609.21 19.4433 1609.07 19.5339 1608.93 19.597C1608.78 19.6601 1608.62 19.6945 1608.46 19.6982C1603.25 19.8678 1598.63 21.3656 1594.62 24.1917C1593.79 24.7946 1593.31 25.6048 1593.18 26.6221C1592.67 30.9555 1592.37 35.3453 1592.3 39.7916C1591.26 95.8989 1590.52 149.651 1590.07 201.048C1590.03 204.609 1588.56 205.363 1585.66 203.309C1581.27 200.182 1577.08 196.715 1573.11 192.909C1530.87 152.458 1486.25 106.921 1439.24 56.2962C1436.43 53.2816 1435.18 53.828 1435.48 57.9353Z" fill="#3A4862"/>
<path d="M471.334 22.1003C469.665 22.6683 468.206 23.723 467.141 25.1284C466.079 26.5338 465.462 28.2255 465.368 29.9851C464.888 39.2831 463.898 48.7222 463.873 57.9352C463.682 101.796 463.458 144.649 463.194 186.494C463.118 199.136 462.721 212.616 462.006 226.935C460.085 264.974 430.777 290.155 398.985 307.705C398.23 308.119 397.761 307.902 397.573 307.055L397.374 306.207C397.223 305.577 397.27 304.915 397.508 304.309C397.746 303.703 398.162 303.182 398.703 302.815C413.512 292.962 423.768 280.989 429.477 266.896C434.255 255.139 437.107 241.348 437.194 228.546C437.277 216.874 439.906 205.683 439.906 193.955C439.812 147.984 439.841 102.569 439.993 57.7091C440.018 47.3091 438.862 37.3045 436.345 27.1307C436.064 25.9863 435.472 24.9445 434.63 24.1247C433.792 23.305 432.742 22.7405 431.597 22.496L414.726 18.8786C414.556 18.8409 414.48 18.7278 414.498 18.5394L414.585 17.6916C414.607 17.4588 414.715 17.2425 414.895 17.0854C415.072 16.9284 415.304 16.8422 415.545 16.8438L483.795 16.872C484.081 16.8737 484.359 16.9737 484.575 17.1547C484.792 17.3356 484.937 17.5857 484.984 17.8612L485.153 18.8786C485.229 19.4061 485.002 19.6793 484.474 19.6981C479.989 19.83 475.609 20.6307 471.334 22.1003Z" fill="#3A4862"/>
<path d="M251.716 44.624L253.808 47.874C253.666 50.9261 253.412 53.7522 254.486 56.6631C256.125 61.0719 256.172 65.8198 254.627 70.9068C253.101 75.9558 252.639 81.6552 253.243 88.0043C253.789 93.5813 253.393 99.2901 252.056 105.13C251.49 107.561 250.143 109.615 248.014 111.291C244.642 113.967 241.099 115.568 237.388 116.096C229.532 117.207 222.419 115.436 216.051 110.783C202.448 100.816 197.908 88.2589 202.429 73.111C202.919 71.4719 203.108 69.7761 202.995 68.024C202.919 67.0068 203.277 66.1871 204.069 65.5652C208.27 62.2304 213.282 60.7328 219.103 61.0719C227.092 61.524 232.979 58.8298 236.766 52.9892C237.2 52.3298 237.746 51.774 238.406 51.3219C239.63 50.5116 240.619 49.0328 241.373 46.8849C248.645 48.2792 252.093 47.5256 251.716 44.624ZM216.729 65.2828C213.282 68.0146 212.311 71.698 213.819 76.3328C215.797 82.4558 218.642 88.5037 222.353 94.4761C222.881 95.324 223.616 95.9267 224.558 96.2849C228.759 97.9052 232.989 99.4689 237.247 100.976C243.012 102.983 247.082 99.3652 246.686 93.7131C246.422 90.1146 246.149 86.4219 245.866 82.6349C245.584 78.8198 247.845 75.6261 250.388 73.111C251.044 72.4541 251.445 71.5824 251.519 70.6522C251.858 65.961 250.812 61.2601 248.382 56.5501C247.628 55.0995 246.61 54.8922 245.329 55.9282C242.927 57.9068 240.525 57.2282 238.01 58.8392C232.207 62.6074 226.065 64.4349 219.584 64.3219C218.547 64.2847 217.532 64.626 216.729 65.2828Z" fill="#3A4862"/>
<path d="M241.374 46.8845C240.62 49.0324 239.631 50.5111 238.406 51.3214C237.747 51.7736 237.2 52.3293 236.767 52.9887C232.98 58.8293 227.093 61.5236 219.104 61.0714C213.283 60.7324 208.271 62.2302 204.069 65.5647C203.278 66.1866 202.92 67.0063 202.996 68.0236C203.109 69.7757 202.92 71.4714 202.43 73.1105C197.909 88.2584 202.449 100.816 216.052 110.782C222.42 115.436 229.532 117.207 237.389 116.095C241.1 115.568 244.643 113.966 248.015 111.291C250.144 109.614 251.491 107.561 252.056 105.13C253.394 99.2896 253.79 93.5808 253.243 88.0038C252.641 81.6548 253.102 75.9554 254.628 70.9063C256.173 65.8193 256.126 61.0714 254.487 56.6626C253.413 53.7517 253.667 50.9257 253.809 47.8736C254.694 51.9433 256.399 54.449 258.924 55.3908C262.428 63.0027 265.678 69.7475 268.674 75.6257C273.139 84.3678 275.786 96.8214 276.615 112.987C273.167 115.304 269.644 117.282 266.046 118.921C260.261 121.54 256.625 123.255 255.137 124.065C252.009 125.798 248.863 127.513 245.698 129.208C242.043 131.168 238.661 132.374 235.552 132.826C223.23 134.597 212.086 131.262 202.119 122.821C200.706 121.634 199.736 120.25 199.209 118.667C198.304 115.916 197.042 113.42 195.422 111.178C194.94 110.492 194.638 109.695 194.546 108.861C194.357 106.92 193.914 105.045 193.217 103.237C190.542 96.2845 190.033 88.8517 191.691 80.9387C191.856 80.176 192.289 79.5105 192.906 79.0736C193.641 78.546 194.103 77.849 194.291 76.9824C194.988 73.723 195.271 70.5011 195.139 67.3172C195.121 66.807 195.218 66.3003 195.424 65.8352C195.629 65.3697 195.938 64.9584 196.326 64.6324C197.061 64.0105 197.683 63.2851 198.191 62.4563C199.096 60.9302 198.672 60.0257 196.919 59.7433C193.867 59.272 191.022 58.123 188.385 56.2954C197.748 52.6969 207.414 49.8896 217.38 47.8736C225.953 46.1214 233.951 45.7917 241.374 46.8845Z" fill="#3A4862"/>
<path d="M216.73 65.2823C217.533 64.6255 218.547 64.2839 219.584 64.3214C226.065 64.4345 232.207 62.6069 238.01 58.8387C240.525 57.2278 242.927 57.9059 245.33 55.9278C246.611 54.8917 247.628 55.099 248.382 56.5496C250.812 61.2596 251.858 65.9605 251.519 70.6517C251.445 71.5819 251.044 72.4533 250.388 73.1105C247.845 75.6256 245.584 78.8189 245.866 82.6344C246.149 86.4214 246.422 90.1141 246.686 93.7126C247.082 99.3647 243.012 102.982 237.247 100.976C232.989 99.4684 228.759 97.9048 224.558 96.2844C223.616 95.9262 222.881 95.3235 222.353 94.4756C218.642 88.5032 215.797 82.4553 213.819 76.3323C212.311 71.6975 213.282 68.0141 216.73 65.2823Z" fill="#3A4862"/>
<path d="M188.385 56.2959C191.022 58.1235 193.867 59.2725 196.919 59.7438C198.672 60.0262 199.096 60.9304 198.191 62.4568C197.682 63.2856 197.061 64.011 196.326 64.6329C195.938 64.959 195.629 65.3703 195.424 65.8357C195.218 66.3008 195.12 66.8075 195.139 67.3174C195.271 70.5017 194.988 73.7235 194.291 76.9829C194.102 77.8495 193.641 78.5465 192.906 79.0741C192.289 79.511 191.855 80.1765 191.691 80.9392C190.033 88.8522 190.542 96.285 193.217 103.237C193.914 105.046 194.357 106.92 194.545 108.861C194.638 109.696 194.94 110.493 195.422 111.178C197.042 113.42 198.304 115.917 199.209 118.667C199.736 120.25 200.706 121.635 202.119 122.822C212.086 131.263 223.23 134.597 235.552 132.826C238.661 132.374 242.043 131.168 245.698 129.209C248.863 127.513 252.009 125.799 255.137 124.065C256.625 123.255 260.261 121.541 266.046 118.922C269.644 117.283 273.167 115.304 276.615 112.987C277.839 127.212 277.218 141.107 274.75 154.672C270.077 157.102 265.669 159.373 261.524 161.483C258.641 162.952 250.813 164.431 238.039 165.92C232.349 166.579 226.622 166.183 220.856 164.733C215.261 163.32 209.627 161.822 203.956 160.239C199.793 159.071 196.345 156.942 193.613 153.852C193.01 153.174 192.266 152.778 191.38 152.665C188.931 152.364 187.009 151.233 185.615 149.274C185.332 148.897 184.984 148.587 184.569 148.341C184.004 148.021 183.401 147.814 182.761 147.72C181.856 147.607 181.074 147.22 180.415 146.561C177.495 143.641 174.584 140.617 171.682 137.489C170.646 136.396 169.176 134.267 167.274 131.102C165.936 128.879 164.165 126.901 161.961 125.167C161.226 124.602 160.774 123.877 160.604 122.991L159.615 117.848C159.464 117.076 159.05 116.491 158.372 116.096C157.279 115.512 156.817 114.579 156.987 113.298C157.1 112.431 156.855 111.696 156.252 111.094C155.046 109.888 154.33 108.409 154.104 106.657C153.087 98.235 151.655 89.3423 149.809 79.9783C159.982 70.3132 172.841 62.4189 188.385 56.2959Z" fill="#3A4862"/>
<path d="M149.807 79.9785C151.653 89.3425 153.085 98.2352 154.102 106.657C154.329 108.409 155.045 109.888 156.25 111.094C156.853 111.697 157.098 112.432 156.985 113.298C156.815 114.579 157.277 115.512 158.37 116.096C159.048 116.492 159.463 117.076 159.613 117.848L160.602 122.992C160.772 123.877 161.224 124.602 161.959 125.168C164.163 126.901 165.935 128.879 167.272 131.102C169.175 134.268 170.645 136.397 171.681 137.489C174.582 140.617 177.493 143.641 180.413 146.561C181.073 147.221 181.855 147.607 182.759 147.72C183.4 147.814 184.002 148.021 184.568 148.342C184.982 148.587 185.331 148.897 185.613 149.274C187.008 151.234 188.929 152.364 191.379 152.665C192.264 152.779 193.008 153.174 193.611 153.852C196.343 156.942 199.791 159.071 203.955 160.239C209.626 161.822 215.259 163.32 220.855 164.733C226.62 166.184 232.348 166.579 238.037 165.92C250.811 164.432 258.639 162.952 261.522 161.483C265.667 159.373 270.076 157.102 274.748 154.672C269.661 181.746 258.536 205.287 241.372 225.296C232.065 223.45 222.889 222.706 213.846 223.063C211.227 223.158 209.032 222.3 207.261 220.492C207.055 220.277 206.793 220.12 206.501 220.036C206.209 219.952 205.897 219.943 205.594 220.011C201.619 220.859 198.453 220.256 196.098 218.202C195.269 217.487 194.318 217.147 193.244 217.185C191.379 217.26 189.702 216.742 188.213 215.631C187.422 215.028 186.527 214.689 185.529 214.613C181.308 214.312 177.559 212.72 174.281 209.837C173.659 209.31 172.943 208.971 172.133 208.82C171.719 208.726 171.295 208.735 170.861 208.848C170.239 208.98 169.75 208.782 169.392 208.255C168.242 206.502 166.679 205.758 164.7 206.022C164.022 206.116 163.57 205.834 163.344 205.174C162.873 203.724 161.893 203.045 160.405 203.139C159.5 203.215 158.728 202.923 158.087 202.263C156.486 200.587 154.639 199.211 152.548 198.137C150.419 197.045 148.554 195.726 146.952 194.181C144.465 191.807 140.763 189.263 139.096 186.268C138.606 185.401 137.947 184.761 137.118 184.346C136.345 183.95 135.658 183.442 135.055 182.82L118.861 165.779C118.145 165.044 117.863 164.177 118.013 163.179C118.07 162.821 118.032 162.491 117.9 162.189C117.599 161.511 117.09 161.069 116.374 160.861C115.357 160.56 114.971 159.9 115.215 158.883C115.461 157.828 115.169 156.952 114.339 156.255C111.363 153.749 109.724 150.829 109.422 147.494C109.272 146.006 108.659 144.79 107.585 143.848C106.135 142.605 104.495 142.605 102.668 143.848C112.239 119.148 127.952 97.8582 149.807 79.9785Z" fill="#3A4862"/>
<path d="M337.601 107.674C351.025 143.933 350.291 192.4 334.436 226.709C312.939 273.264 278.225 303.729 230.295 318.104C228.335 318.688 226.319 319.187 224.247 319.602C221.741 320.111 219.452 320.817 217.38 321.722C215.571 322.513 213.046 322.485 209.806 321.637C224.652 315.495 236.23 309.456 244.538 303.522C294.014 268.196 316.641 219.596 312.421 157.724L329.208 128.53C329.467 128.067 329.603 127.552 329.604 127.033C329.604 126.034 329.99 125.224 330.762 124.602C331.478 124.018 331.874 123.274 331.949 122.369C332.477 116.567 334.361 111.668 337.601 107.674Z" fill="#3A4862"/>
<path d="M1081.34 303.465C1082.43 299 1083.05 294.808 1083.18 290.889C1083.72 274.498 1083.79 256.298 1083.38 236.289C1083.27 230.693 1080.55 227.82 1075.24 227.669C1074.9 227.669 1074.73 227.5 1074.73 227.161V227.132C1074.73 226.737 1074.93 226.529 1075.32 226.511C1083.56 226.19 1092.03 225.945 1100.73 225.776C1108.21 225.625 1114.32 227 1119.07 229.902C1127.3 234.961 1128.77 247.282 1125.06 255.252C1120.2 265.727 1111.15 271.031 1097.9 271.163C1097.68 271.163 1097.48 271.076 1097.32 270.923C1097.17 270.769 1097.08 270.56 1097.08 270.343L1097.11 269.467C1097.11 269.353 1097.14 269.241 1097.19 269.138C1097.23 269.035 1097.3 268.942 1097.38 268.865C1097.46 268.789 1097.56 268.73 1097.66 268.693C1097.77 268.655 1097.88 268.64 1097.99 268.648C1125.74 270.259 1125.8 228.913 1096.29 228.856C1095.8 228.852 1095.3 228.947 1094.85 229.134C1094.39 229.322 1093.97 229.598 1093.61 229.947C1093.26 230.297 1092.99 230.712 1092.79 231.17C1092.6 231.628 1092.51 232.119 1092.51 232.615L1092.73 301.091C1092.73 302.161 1093.15 303.19 1093.89 303.96C1094.63 304.729 1095.65 305.181 1096.72 305.217C1098.58 305.274 1100.35 305.603 1102.03 306.206C1104.29 307.016 1104.22 307.506 1101.83 307.676C1093.96 308.222 1085.93 308.288 1077.75 307.874C1077.06 307.836 1076.6 307.497 1076.37 306.856C1076.27 306.574 1076.36 306.291 1076.62 306.009C1076.75 305.839 1076.92 305.735 1077.13 305.698L1079.7 305.104C1080.59 304.897 1081.13 304.35 1081.34 303.465Z" fill="#3A4862"/>
<path d="M524.658 232.304L524.687 259.915C524.687 261.742 525.601 262.619 527.428 262.543L548.824 261.667C549.708 261.629 550.16 262.044 550.178 262.911C550.293 266.208 550.152 269.288 549.755 272.152C549.286 275.449 548.672 275.477 547.917 272.237C546.939 267.941 544.479 265.793 540.543 265.793C536.094 265.812 531.649 265.586 527.204 265.115C526.897 265.083 526.59 265.115 526.297 265.208C526.005 265.302 525.734 265.455 525.507 265.657C525.275 265.859 525.091 266.106 524.969 266.383C524.842 266.66 524.774 266.959 524.774 267.263C524.622 278.266 524.593 288.459 524.687 297.841C524.745 303.587 527.93 306.235 534.242 305.782C534.343 305.772 534.451 305.799 534.542 305.861C534.632 305.922 534.708 306.014 534.747 306.122L535.116 307.111C535.325 307.676 535.127 307.968 534.524 307.987L511.264 308.043C507.325 308.062 507.043 307.242 510.416 305.585C515.757 302.928 515.388 298.152 515.616 292.698C516.331 275.572 516.493 258.446 516.096 241.319C515.955 234.706 516.804 228.432 508.072 227.443C507.711 227.405 507.552 227.198 507.592 226.822V226.793C507.61 226.624 507.711 226.529 507.902 226.511C522.502 225.795 536.831 225.813 550.885 226.567C551.387 226.589 551.864 226.788 552.236 227.129C552.608 227.469 552.85 227.93 552.922 228.432C553.486 232.163 553.28 235.667 552.297 238.946C551.886 240.34 551.384 240.368 550.802 239.03C550.293 237.919 550.037 236.722 550.037 235.441C550.019 233.029 548.813 231.72 546.422 231.513L527.316 229.846C525.525 229.695 524.64 230.514 524.658 232.304Z" fill="#3A4862"/>
<path d="M1505.28 279.415C1505.21 286.217 1505.22 293.141 1505.31 300.187C1505.37 304.341 1509.38 306.15 1512.91 306.065C1512.94 306.065 1512.96 306.07 1512.98 306.078C1513 306.087 1513.02 306.099 1513.03 306.115C1513.05 306.131 1513.06 306.15 1513.07 306.17C1513.08 306.191 1513.08 306.213 1513.08 306.235L1513.06 306.998C1513.04 307.338 1512.9 307.658 1512.65 307.89C1512.41 308.123 1512.09 308.249 1511.76 308.241L1489.63 307.761C1489.53 307.761 1489.48 307.714 1489.46 307.62C1489.42 307.356 1489.36 307.083 1489.29 306.8C1489.23 306.574 1489.32 306.433 1489.54 306.376C1494.18 305.528 1496.55 302.853 1496.66 298.35C1497.04 281.074 1497.07 263.034 1496.75 244.231C1496.74 243.751 1496.63 243.279 1496.43 242.846C1496.24 242.413 1495.95 242.028 1495.59 241.715C1494.23 240.51 1492.46 239.888 1490.28 239.85C1489.66 239.831 1489.35 239.511 1489.35 238.889L1489.37 238.07C1489.39 237.731 1489.57 237.561 1489.91 237.561C1497.9 237.674 1505.56 237.627 1512.89 237.42C1519.22 237.25 1529.11 239.285 1533.49 244.259C1541.29 253.104 1535.78 267.122 1527.38 274.187C1526.46 274.978 1526.37 275.845 1527.1 276.787C1533.92 285.642 1540.72 293.753 1547.51 301.12C1549.09 302.872 1551.75 304.087 1553.89 305.076C1554.54 305.377 1555.25 305.496 1555.95 305.419C1556.66 305.343 1557.33 305.074 1557.89 304.643C1558.45 304.211 1558.89 303.633 1559.14 302.972C1559.4 302.311 1559.47 301.592 1559.35 300.894C1558.8 297.71 1558.71 294.695 1559.09 291.85C1559.32 290.192 1559.72 290.145 1560.31 291.709L1563.7 300.554C1564.06 301.497 1564.7 302.175 1565.62 302.589C1573.45 306.235 1587.64 307.054 1590.35 296.174C1593.32 284.389 1578.68 276.08 1570.6 270.315C1559.09 262.063 1556.89 242.563 1573.05 238.183C1578.74 236.638 1585.75 236.525 1594.08 237.844C1595.1 238.013 1595.65 238.616 1595.75 239.652C1595.97 242.441 1595.89 245.239 1595.49 248.046C1595.21 250.062 1594.78 250.09 1594.19 248.13C1590.77 236.741 1569.58 237.674 1567.91 248.865C1567.31 252.916 1568.76 256.449 1572.26 259.463C1580.01 266.076 1590.77 270.909 1595.97 279.839C1600.98 288.43 1599.08 301.035 1589.5 305.698C1585.62 307.582 1581.34 308.487 1576.67 308.411C1567.63 308.223 1558.91 308.072 1550.53 307.959C1543.63 307.874 1537.73 303.267 1533.66 297.954C1529.21 292.133 1524.74 286.283 1520.26 280.404C1519.62 279.544 1518.71 278.926 1517.69 278.652C1514.2 277.729 1510.64 277.39 1506.98 277.635C1505.87 277.691 1505.3 278.285 1505.28 279.415ZM1504.95 246.746L1505.17 269.807C1505.18 270.497 1505.32 271.179 1505.59 271.814C1505.86 272.449 1506.26 273.024 1506.75 273.507C1507.25 273.99 1507.83 274.371 1508.47 274.628C1509.11 274.886 1509.79 275.014 1510.48 275.007L1514.81 274.978C1516.67 274.961 1518.5 274.562 1520.22 273.805C1521.93 273.049 1523.48 271.949 1524.78 270.568C1526.08 269.188 1527.11 267.554 1527.8 265.76C1528.5 263.966 1528.84 262.047 1528.83 260.113L1528.77 255.987C1528.73 252.083 1527.2 248.354 1524.52 245.619C1521.84 242.885 1518.22 241.369 1514.47 241.404L1510.15 241.433C1509.46 241.44 1508.77 241.584 1508.14 241.854C1507.5 242.126 1506.93 242.519 1506.44 243.012C1505.96 243.506 1505.58 244.089 1505.32 244.73C1505.06 245.371 1504.94 246.056 1504.95 246.746Z" fill="#3A4862"/>
<path d="M633.154 240.161C632.331 240.122 631.526 240.409 630.912 240.959C630.298 241.509 629.926 242.278 629.875 243.1C629.103 254.31 628.944 266.133 629.395 278.568C629.846 291.313 624.563 303.211 612.069 306.8C593.844 312 573.524 305.613 573.044 283.852C572.74 270.984 572.704 257.626 572.928 243.778C572.95 242.045 572.101 240.99 570.386 240.613L565.074 239.511C565.016 239.492 564.987 239.454 564.987 239.398L564.958 238.465C564.955 238.346 564.976 238.226 565.02 238.115C565.063 238.003 565.132 237.902 565.215 237.817C565.301 237.732 565.403 237.666 565.515 237.622C565.626 237.578 565.746 237.557 565.865 237.561C573.174 237.731 580.436 237.627 587.654 237.25C587.766 237.25 587.824 237.307 587.824 237.42L587.849 238.324C587.849 238.564 587.755 238.794 587.586 238.963C587.416 239.133 587.185 239.228 586.946 239.228C583.462 239.209 581.635 240.858 581.465 244.174C580.804 257.72 580.909 271.154 581.775 284.474C583.469 310.361 618.204 312.565 622.386 287.272C623.913 278.021 624.336 263.485 623.657 243.665C623.621 242.685 623.166 241.96 622.299 241.489C620.378 240.453 618.183 239.878 615.716 239.765C615.604 239.765 615.546 239.709 615.546 239.596L615.575 238.635C615.593 237.825 615.998 237.429 616.789 237.448L634.935 237.787C636.668 237.825 636.845 238.381 635.469 239.455C634.812 239.963 634.039 240.198 633.154 240.161Z" fill="#3A4862"/>
<path d="M663.137 254.857C661.555 253.142 660.717 253.453 660.623 255.789C660.038 270.334 660.302 284.766 661.414 299.085C661.783 303.889 665.257 305.981 669.637 306.122C670.28 306.141 670.601 306.461 670.601 307.083V307.789C670.601 307.921 670.543 307.987 670.431 307.987C663.476 308.195 657.222 308.148 651.664 307.846C647.652 307.639 647.548 306.895 651.354 305.613C652.69 305.161 653.69 304.313 654.351 303.07C654.629 302.531 654.774 301.93 654.774 301.318V239.002C654.774 238.694 654.871 238.392 655.044 238.135C655.221 237.879 655.47 237.679 655.763 237.561C657.193 236.958 658.417 237.213 659.435 238.324C676.599 256.524 693.3 273.98 709.543 290.691C710.334 291.521 711.212 292.284 712.172 292.981C713.357 293.885 713.913 293.593 713.837 292.105L711.663 243.242C711.627 242.535 711.313 241.866 710.785 241.376C709.128 239.907 707.037 239.342 704.513 239.681C703.91 239.756 703.581 239.483 703.524 238.861L703.466 238.126C703.448 237.693 703.646 237.486 704.062 237.505L723.814 237.589C724.305 237.589 724.54 237.834 724.522 238.324L724.464 239.228C724.446 239.474 724.323 239.605 724.096 239.624C720.442 240.02 718.603 241.621 718.585 244.428C718.416 265.191 718.134 285.906 717.737 306.574C717.73 306.869 717.639 307.155 717.473 307.398C717.307 307.642 717.072 307.832 716.802 307.945C716.527 308.059 716.231 308.091 715.938 308.039C715.65 307.986 715.382 307.85 715.166 307.648C696.966 290.183 679.625 272.586 663.137 254.857Z" fill="#3A4862"/>
<path d="M743.34 304.681C743.853 304.544 744.304 304.243 744.626 303.824C744.947 303.405 745.121 302.892 745.121 302.364V243.157C745.121 242.621 744.973 242.097 744.694 241.642C744.416 241.188 744.016 240.822 743.539 240.585C742.087 239.869 740.506 239.568 738.79 239.681C738.093 239.737 737.729 239.417 737.689 238.72L737.635 237.957C737.635 237.882 737.664 237.81 737.718 237.757C737.768 237.704 737.841 237.674 737.916 237.674C755.297 237.335 773.327 235.724 790.169 241.179C796.687 243.289 802.003 247.679 806.109 254.348C809.351 259.623 810.839 265.907 810.576 273.198C809.615 299.368 789.321 309.4 765.838 308.327C758.283 307.987 750.303 307.893 741.899 308.044C739.866 308.063 739.585 307.375 741.054 305.981C741.694 305.359 742.456 304.926 743.34 304.681ZM798.648 289.674C805.74 270.655 800.035 254.037 782.654 244.683C780.712 243.647 778.65 243.063 776.465 242.931C769.369 242.507 762.107 238.494 755.549 242.931C754.704 243.496 754.278 244.287 754.278 245.305C754.127 262.393 754.249 279.039 754.647 295.242C754.759 299.396 756.315 302.759 760.58 303.861C772.507 306.998 793.506 303.607 798.648 289.674Z" fill="#3A4862"/>
<path d="M829.794 305.5C830.578 305.17 831.249 304.622 831.73 303.92C832.21 303.219 832.481 302.394 832.506 301.544C832.975 284.192 833.044 267.084 832.705 250.222C832.618 246.152 833.524 241.715 829.144 239.652C826.41 238.352 826.551 237.674 829.567 237.618C835.482 237.486 841.285 237.439 846.976 237.476C847.369 237.476 847.702 237.618 847.965 237.9C848.135 238.089 848.211 238.324 848.189 238.607C848.171 238.965 847.983 239.163 847.626 239.2C840.219 239.652 841.324 245.022 841.267 250.589C841.115 266.943 841.155 282.863 841.378 298.35C841.436 302.024 843.094 304.398 846.355 305.472C851.121 307.036 850.988 307.893 845.957 308.044C839.855 308.213 834.098 308.082 828.689 307.648C826.447 307.46 826.374 306.932 828.465 306.065L829.794 305.5Z" fill="#3A4862"/>
<path d="M926.077 291.257C927.85 293.217 928.742 292.877 928.763 290.24L928.933 245.022C928.951 242.573 927.734 241.226 925.286 240.981C924.08 240.849 922.986 240.491 922.007 239.907C919.465 238.381 919.671 237.608 922.628 237.59C927.131 237.533 932.039 237.458 937.354 237.363C937.788 237.345 938.181 237.448 938.539 237.674C938.766 237.806 938.907 237.995 938.965 238.24C939.116 238.824 938.9 239.191 938.315 239.342C935.751 240.039 934.469 241.734 934.469 244.429C934.451 266.303 934.451 286.726 934.469 305.698C934.469 308.393 933.443 308.873 931.389 307.14C911.918 290.72 894.848 271.474 877.439 252.596C876.178 251.24 875.604 251.485 875.716 253.331C876.038 258.757 876.449 263.938 876.958 268.874C878.063 279.331 877.836 289.533 878.034 299.99C878.11 304.154 880.378 306.188 884.845 306.094C885.448 306.075 885.694 306.358 885.578 306.942L885.408 307.677C885.408 307.733 885.383 307.761 885.325 307.761C878.374 308.383 871.683 308.28 865.258 307.45C863.261 307.206 863.214 306.754 865.118 306.094C869.415 304.662 871.599 302.467 871.675 299.509C872.203 280.028 872.333 259.982 872.069 239.37C872.058 239.081 872.138 238.795 872.289 238.549C872.445 238.304 872.668 238.111 872.936 237.995C873.199 237.88 873.492 237.846 873.777 237.9C874.062 237.954 874.326 238.091 874.528 238.296C892.992 256.195 910.177 273.848 926.077 291.257Z" fill="#3A4862"/>
<path d="M1004.36 303.38C1005.35 303.152 1006.24 302.606 1006.89 301.825C1007.53 301.043 1007.91 300.071 1007.95 299.057C1008.16 293.348 1008.17 287.375 1007.98 281.139C1007.89 278.483 1006.79 276.335 1004.67 274.781C1003.47 273.876 1003.62 273.452 1005.12 273.509L1017.61 273.904C1019.22 273.961 1019.41 274.507 1018.18 275.544C1017.67 275.977 1017.29 276.523 1017.05 277.183C1016.69 278.106 1016.51 279.048 1016.51 280.009C1016.46 287.394 1016.36 294.798 1016.23 302.222C1016.22 303.024 1015.96 303.803 1015.47 304.443C1014.99 305.084 1014.31 305.553 1013.55 305.783C1004.47 308.524 992.575 308.92 983.504 307.817C942.384 302.872 940.662 243.241 981.186 237.787C991.34 236.411 1002.21 236.873 1013.8 239.172C1014.83 239.379 1015.48 240.001 1015.75 241.037C1016.54 244.24 1016.73 247.81 1016.31 251.748C1015.94 255.365 1015.13 255.459 1013.88 252.03L1012.22 247.424C1011.88 246.501 1011.27 245.813 1010.41 245.361C995.262 237.504 971.013 237.052 963.383 255.478C952.134 282.637 974.574 310.163 1004.36 303.38Z" fill="#3A4862"/>
<path d="M1143.15 305.105C1143.75 305.406 1144.34 305.755 1144.9 306.15C1146.82 307.488 1146.61 308.147 1144.28 308.128L1127.04 307.931C1126.73 307.931 1126.44 307.809 1126.22 307.591C1126.01 307.374 1125.88 307.079 1125.88 306.772C1125.88 306.207 1126.14 305.896 1126.64 305.839C1131.73 305.35 1135.08 302.976 1136.71 298.718C1144.22 278.973 1152.08 258.879 1160.28 238.437C1160.38 238.192 1160.53 237.974 1160.73 237.802C1160.94 237.631 1161.17 237.511 1161.43 237.453C1161.69 237.394 1161.96 237.399 1162.22 237.467C1162.47 237.536 1162.71 237.665 1162.9 237.844C1163.71 238.597 1164.33 239.473 1164.74 240.472C1172.64 259.501 1180.33 278.295 1187.83 296.852C1189.94 302.071 1194.03 305.482 1200.09 307.083C1200.21 307.12 1200.3 307.194 1200.36 307.292C1200.43 307.39 1200.45 307.507 1200.44 307.623C1200.43 307.739 1200.37 307.847 1200.29 307.929C1200.21 308.011 1200.1 308.061 1199.98 308.072L1183.17 308.1C1182.05 308.1 1181.38 307.554 1181.13 306.461C1179.4 298.68 1176.77 291.2 1173.25 284.022C1172.76 283.005 1171.95 282.515 1170.82 282.552C1165.46 282.741 1159.78 282.675 1153.78 282.355C1146.17 281.931 1143.6 296.824 1141.88 302.222C1141.71 302.771 1141.74 303.364 1141.98 303.893C1142.21 304.422 1142.62 304.852 1143.15 305.105ZM1150.75 276.278C1150.69 276.424 1150.68 276.581 1150.7 276.736C1150.72 276.891 1150.77 277.039 1150.86 277.166C1150.95 277.294 1151.07 277.399 1151.21 277.47C1151.34 277.542 1151.5 277.58 1151.66 277.578L1169.6 277.635C1169.76 277.638 1169.92 277.601 1170.06 277.528C1170.2 277.454 1170.32 277.347 1170.41 277.215C1170.5 277.083 1170.56 276.931 1170.57 276.773C1170.59 276.614 1170.57 276.454 1170.51 276.307L1161.58 253.274C1161.51 253.088 1161.39 252.927 1161.22 252.813C1161.06 252.699 1160.87 252.638 1160.67 252.638C1160.47 252.638 1160.28 252.699 1160.12 252.813C1159.96 252.927 1159.83 253.088 1159.77 253.274L1150.75 276.278Z" fill="#3A4862"/>
<path d="M1221.74 279.133C1221.74 285.294 1222.05 291.54 1221.91 297.729C1221.8 303.042 1224.39 305.962 1229.68 306.49C1230.38 306.565 1230.67 306.942 1230.56 307.62C1230.5 307.978 1230.31 308.157 1229.97 308.157C1222.85 308.195 1215.57 308.176 1208.15 308.1C1204.98 308.063 1204.85 307.404 1207.75 306.122C1210.58 304.85 1212.3 302.759 1212.56 299.566C1214.1 280.989 1214.26 263.043 1213.04 245.729C1212.77 241.923 1210.56 239.85 1206.4 239.511C1206.37 239.508 1206.35 239.5 1206.34 239.488C1206.31 239.476 1206.3 239.461 1206.28 239.442C1206.27 239.424 1206.26 239.403 1206.26 239.381C1206.25 239.359 1206.25 239.336 1206.26 239.313L1206.34 238.494C1206.4 238.023 1206.66 237.778 1207.13 237.759C1220.17 237.062 1230.19 237.222 1237.2 238.24C1259.67 241.546 1257.18 262.657 1243.93 274.329C1243.59 274.63 1243.38 275.044 1243.33 275.488C1243.29 275.932 1243.41 276.375 1243.67 276.731C1250.65 286.057 1262.66 302.844 1274.03 305.924C1277.49 306.867 1277.45 307.573 1273.88 308.044C1255.09 310.474 1246.25 292.048 1236.01 279.67C1235.32 278.803 1234.4 278.332 1233.27 278.257L1223.55 277.466C1223.32 277.446 1223.08 277.475 1222.86 277.55C1222.64 277.625 1222.44 277.745 1222.27 277.903C1222.1 278.06 1221.96 278.251 1221.87 278.463C1221.78 278.675 1221.74 278.903 1221.74 279.133ZM1221.66 245.503L1221.77 270.711C1221.77 271.836 1222.22 272.914 1223.01 273.709C1223.81 274.504 1224.89 274.95 1226.01 274.95L1230.65 274.922C1234.67 274.907 1238.53 273.277 1241.37 270.39C1244.21 267.502 1245.8 263.593 1245.79 259.52V256.581C1245.79 254.56 1245.39 252.559 1244.62 250.693C1243.85 248.828 1242.73 247.134 1241.31 245.708C1239.89 244.283 1238.21 243.154 1236.36 242.387C1234.51 241.619 1232.53 241.228 1230.53 241.235L1225.9 241.263C1224.77 241.263 1223.69 241.71 1222.9 242.505C1222.1 243.3 1221.66 244.378 1221.66 245.503Z" fill="#3A4862"/>
<path d="M1291.57 243.609C1283.32 242.083 1275.77 242.685 1268.91 245.417C1268.21 245.7 1267.81 245.474 1267.69 244.739C1267.37 242.61 1267.67 240.669 1268.57 238.917C1269.04 238.032 1269.77 237.589 1270.77 237.589L1325.06 237.759C1325.36 237.759 1325.65 237.818 1325.93 237.933C1326.2 238.048 1326.45 238.216 1326.66 238.429C1326.87 238.641 1327.04 238.894 1327.15 239.172C1327.27 239.449 1327.32 239.747 1327.32 240.048C1327.31 242.497 1327.07 244.861 1326.62 247.141C1326.26 248.969 1325.83 248.987 1325.32 247.198L1324.98 245.983C1324.74 245.131 1324.23 244.38 1323.52 243.844C1322.81 243.309 1321.94 243.017 1321.05 243.015L1304.6 243.1C1304.25 243.1 1303.9 243.168 1303.57 243.302C1303.25 243.436 1302.95 243.631 1302.7 243.878C1302.46 244.125 1302.26 244.417 1302.12 244.74C1301.99 245.062 1301.92 245.407 1301.92 245.756C1301.81 261.771 1301.81 279.057 1301.92 297.615C1301.94 303.041 1304.78 305.867 1310.45 306.093C1310.98 306.112 1311.18 306.376 1311.05 306.885L1310.85 307.704C1310.81 307.836 1310.72 307.902 1310.59 307.902C1302.87 308.128 1295.22 308.109 1287.65 307.846C1287.32 307.846 1287.08 307.713 1286.91 307.45C1286.86 307.356 1286.84 307.261 1286.88 307.167C1286.98 306.772 1287.22 306.546 1287.62 306.489C1290.67 306.009 1293.27 304.143 1293.3 300.809C1293.47 282.665 1293.5 264.314 1293.38 245.756C1293.38 245.242 1293.2 244.745 1292.87 244.352C1292.54 243.959 1292.08 243.695 1291.57 243.609Z" fill="#3A4862"/>
<path d="M1400.69 291.426C1402.52 293.423 1403.44 293.074 1403.46 290.38C1403.67 275.063 1403.69 260.273 1403.52 246.011C1403.44 241.282 1400.58 239.435 1394.92 240.472C1394.86 240.484 1394.8 240.483 1394.74 240.469C1394.68 240.455 1394.63 240.429 1394.58 240.391C1394.53 240.353 1394.49 240.306 1394.46 240.251C1394.43 240.197 1394.42 240.137 1394.42 240.076L1394.39 239.172C1394.38 238.779 1394.53 238.399 1394.79 238.114C1395.07 237.828 1395.44 237.66 1395.83 237.646C1401.5 237.514 1407.09 237.466 1412.59 237.504C1413.36 237.523 1413.81 237.9 1413.94 238.635C1413.96 238.729 1413.96 238.823 1413.94 238.917C1413.89 239.124 1413.76 239.266 1413.55 239.341C1412.55 239.661 1411.64 240.085 1410.84 240.613C1410.35 240.934 1409.95 241.371 1409.68 241.884C1409.4 242.396 1409.25 242.97 1409.25 243.552V306.743C1409.26 306.988 1409.19 307.228 1409.07 307.438C1408.94 307.648 1408.76 307.82 1408.55 307.933C1408.33 308.047 1408.08 308.099 1407.84 308.084C1407.6 308.068 1407.36 307.986 1407.16 307.846C1404.41 305.961 1401.82 303.861 1399.39 301.543C1382.64 285.604 1367 269.411 1352.48 252.963C1351.12 251.437 1350.49 251.701 1350.58 253.754L1352.73 302.278C1352.77 303.277 1353.22 304.03 1354.09 304.539C1355.71 305.5 1357.48 305.961 1359.4 305.924C1359.97 305.905 1360.26 306.187 1360.28 306.772L1360.31 307.507C1360.32 307.751 1360.21 307.874 1359.97 307.874C1353.82 308.1 1347.41 308.128 1340.72 307.959C1340.19 307.959 1339.75 307.761 1339.39 307.365C1338.54 306.461 1338.73 305.943 1339.96 305.811C1343.95 305.34 1345.96 303.003 1345.98 298.802C1346.16 277.889 1346.19 258.521 1346.06 240.698C1346.02 237.005 1347.33 236.449 1349.99 239.03C1366.83 255.327 1383.73 272.793 1400.69 291.426Z" fill="#3A4862"/>
<path d="M1445.77 274.073L1445.82 300.102C1445.84 301.194 1446.37 301.92 1447.41 302.278C1453.34 304.284 1467.33 305.923 1470.5 297.982C1471.15 296.343 1471.47 296.4 1471.46 298.152L1471.37 304.991C1471.36 305.783 1471.05 306.541 1470.49 307.101C1469.94 307.661 1469.19 307.979 1468.4 307.986C1456.44 308.1 1444.31 308.081 1432.03 307.93C1428.6 307.892 1428.36 307.007 1431.3 305.273C1431.71 305.029 1432.18 304.991 1432.71 305.16C1432.93 305.234 1433.15 305.261 1433.38 305.242C1433.6 305.222 1433.82 305.156 1434.02 305.047C1434.22 304.938 1434.4 304.789 1434.54 304.609C1434.67 304.429 1434.77 304.222 1434.83 304.002C1435.86 299.706 1436.43 295.608 1436.53 291.708C1436.87 278.331 1436.9 263.353 1436.64 246.773C1436.56 242.534 1434.44 240.104 1430.28 239.482C1429.62 239.388 1429.31 239.011 1429.35 238.352L1429.38 237.617C1429.39 237.523 1429.52 237.476 1429.74 237.476L1467.98 238.069C1469.03 238.069 1469.51 238.606 1469.42 239.68C1469.21 242.167 1468.76 244.692 1468.06 247.254C1467.65 248.742 1467.19 248.761 1466.68 247.31L1465.83 244.908C1465.66 244.426 1465.34 244.006 1464.92 243.704C1464.5 243.402 1464 243.231 1463.49 243.213L1447.52 242.676C1446.35 242.638 1445.77 243.194 1445.77 244.343L1445.71 266.358C1445.71 267.432 1446.25 268.035 1447.32 268.167C1454.18 269.033 1460.78 268.694 1467.13 267.15C1468.11 266.923 1468.61 267.3 1468.63 268.28C1468.74 271.257 1468.52 274.366 1467.98 277.606C1467.68 279.415 1467.25 279.443 1466.68 277.691L1466.03 275.6C1465.65 274.469 1464.88 273.857 1463.71 273.763L1447.69 272.293C1446.39 272.161 1445.75 272.755 1445.77 274.073Z" fill="#3A4862"/>
</svg>
