<svg width="1019" height="350" viewBox="0 0 1019 350" fill="none" xmlns="http://www.w3.org/2000/svg">
<path d="M270.853 0H302.265C340.007 8.45835 361.941 30.275 368.066 65.45C387.929 180.25 210.74 198.538 203.653 89.6C200.503 39.9 222.903 10.0333 270.853 0ZM291.433 133.823C305.16 132.332 317.714 125.284 326.335 114.23C334.955 103.175 338.935 89.0197 337.398 74.8772C335.862 60.7351 328.935 47.7645 318.142 38.8188C307.35 29.8733 293.575 25.6855 279.848 27.1766C266.121 28.6678 253.566 35.7157 244.946 46.7705C236.326 57.8249 232.346 71.9803 233.882 86.1228C235.419 100.265 242.345 113.236 253.138 122.181C263.931 131.127 277.706 135.315 291.433 133.823Z" fill="#3A4862"/>
<path d="M586.113 0H617.876C669.266 13.3 691.054 46.1125 683.238 98.4375C670.551 183.575 527.313 185.063 519.263 91.7875C514.888 41.2125 537.173 10.6167 586.113 0ZM654.013 80.675C654.013 66.6582 648.445 53.2158 638.533 43.3045C628.621 33.3931 615.181 27.825 601.163 27.825C587.146 27.825 573.702 33.3931 563.794 43.3045C553.882 53.2158 548.313 66.6582 548.313 80.675C548.313 94.6918 553.882 108.134 563.794 118.046C573.702 127.957 587.146 133.525 601.163 133.525C615.181 133.525 628.621 127.957 638.533 118.046C648.445 108.134 654.013 94.6918 654.013 80.675Z" fill="#3A4862"/>
<path d="M58.6642 70.0876C56.6807 65.3626 55.3101 65.5085 54.5517 70.5251L41.5142 152.6C41.2451 154.236 40.411 155.723 39.1611 156.797C37.9113 157.87 36.3265 158.461 34.6892 158.463L16.3142 158.638C15.3778 158.64 14.4524 158.436 13.6036 158.041C12.7547 157.646 12.003 157.069 11.4019 156.351C10.8009 155.632 10.365 154.791 10.1251 153.886C9.88533 152.981 9.84746 152.034 10.0142 151.113L37.3142 8.48759C37.8976 5.39594 39.7352 3.82094 42.8267 3.76259L54.9017 3.58759C56.6241 3.55816 58.3132 4.04326 59.7489 4.97975C61.1849 5.91621 62.3011 7.26056 62.9517 8.83759L99.1767 93.8876C101.043 98.321 102.939 98.3501 104.864 93.9751L142.227 8.57509C143.568 5.60009 145.873 4.02509 149.139 3.85009L161.739 3.32511C165.706 3.09177 168.01 4.95844 168.652 8.92509L192.714 153.825C193.239 157.092 191.839 158.696 188.514 158.638L167.077 158.375C163.577 158.317 161.593 156.567 161.127 153.125L150.539 77.0001C149.256 67.7251 146.718 67.3751 142.927 75.9501L109.327 152.513C108.195 155.111 106.213 157.216 103.727 158.463C99.7017 160.446 96.7851 159.338 94.9767 155.138C82.9601 127.838 70.8557 99.4876 58.6642 70.0876Z" fill="#3A4862"/>
<path d="M428.525 34.125L428.613 153.038C428.613 154.499 428.032 155.902 426.999 156.935C425.963 157.969 424.563 158.55 423.1 158.55H402.013C400.55 158.55 399.15 157.969 398.114 156.935C397.081 155.902 396.5 154.499 396.5 153.038L396.85 34.7375C396.85 33.2905 396.283 31.9015 395.268 30.8702C394.253 29.8389 392.871 29.248 391.425 29.225L367.1 28.875C365.697 28.8543 364.356 28.2998 363.348 27.3244C362.34 26.349 361.742 25.0261 361.675 23.625L361.063 9.275C361.028 8.52933 361.143 7.78418 361.406 7.08477C361.665 6.38537 362.067 5.74627 362.582 5.20625C363.096 4.66624 363.716 4.23654 364.402 3.94324C365.091 3.64994 365.83 3.49916 366.575 3.5L457.925 3.7625C459.371 3.78546 460.753 4.37637 461.768 5.40768C462.783 6.43902 463.35 7.82803 463.35 9.275L463.263 23.7125C463.263 24.4514 463.116 25.1828 462.825 25.8633C462.538 26.5438 462.118 27.1594 461.586 27.6736C461.058 28.1879 460.428 28.5902 459.738 28.8567C459.049 29.1232 458.314 29.2485 457.575 29.225L434.125 28.6125C433.394 28.6009 432.669 28.7349 431.99 29.0067C431.311 29.2786 430.692 29.6828 430.17 30.1958C429.649 30.7089 429.236 31.3205 428.952 31.995C428.669 32.6696 428.525 33.3937 428.525 34.125Z" fill="#3A4862"/>
<path d="M497.3 3.84961H473.85C471.484 3.84961 469.562 5.76918 469.562 8.13711V154.087C469.562 156.455 471.484 158.375 473.85 158.375H497.3C499.67 158.375 501.588 156.455 501.588 154.087V8.13711C501.588 5.76918 499.67 3.84961 497.3 3.84961Z" fill="#3A4862"/>
<path d="M731.718 61.687L731.455 153.65C731.455 154.949 730.937 156.195 730.02 157.114C729.1 158.033 727.854 158.55 726.556 158.55L705.905 158.812C702.58 158.812 700.918 157.15 700.918 153.825L701.006 9.36199C701.006 5.51198 702.93 3.64529 706.78 3.76198L720.08 4.02448C722.53 4.08279 724.571 5.01614 726.205 6.82449L811.08 99.0495C814.93 103.25 816.855 102.491 816.855 96.7745L816.418 8.66198C816.358 5.39529 817.961 3.76198 821.23 3.76198H843.28C844.673 3.76198 846.007 4.31509 846.99 5.29967C847.977 6.28423 848.53 7.61958 848.53 9.01199L848.618 152.6C848.618 155.575 847.13 157.383 844.155 158.025C835.93 159.775 826.393 159.425 820.355 152.6C792.355 121.45 764.093 90.6495 735.568 60.1995C733.059 57.458 731.774 57.9536 731.718 61.687Z" fill="#3A4862"/>
<path d="M966.918 350H941.805C929.38 346.383 917.711 339.733 906.805 330.05C901.321 325.15 901.118 320.046 906.193 314.737L912.668 307.912C917.218 303.071 921.561 303.304 925.705 308.612C936.905 322.875 962.893 329.612 974.093 312.112C975.703 309.579 976.714 306.712 977.047 303.727C977.379 300.742 977.029 297.719 976.018 294.885C975.003 292.052 973.361 289.484 971.209 287.374C969.053 285.265 966.449 283.671 963.593 282.712C943.118 275.975 909.78 265.212 909.168 239.137C908.349 204.662 925.761 187.571 961.405 187.862C976.28 187.979 989.374 192.616 1000.69 201.775C1003.84 204.283 1003.96 206.966 1001.04 209.825C998.358 212.45 996.258 215.483 994.743 218.925C992.174 224.758 988.296 225.808 983.105 222.075C978.496 218.75 973.48 216.446 968.055 215.162C964.611 214.287 961.083 214.054 957.468 214.462C946.733 215.687 941.249 220.966 941.018 230.3C940.941 233.619 941.9 236.879 943.769 239.625C945.634 242.37 948.315 244.464 951.43 245.612C963.446 250.046 975.549 254.946 987.743 260.312C997.893 264.687 1004.25 274.487 1006.82 289.712C1012.18 321.096 998.883 341.191 966.918 350Z" fill="#3A4862"/>
<path d="M81.0655 286.738C83.2821 292.221 85.4696 292.221 87.628 286.738L121.928 199.15C124.203 193.492 128.374 190.692 134.441 190.75L151.153 190.838C156.753 190.896 158.445 193.492 156.228 198.625L96.553 338.975C95.5258 341.423 93.7985 343.512 91.5879 344.982C89.3777 346.452 86.7824 347.235 84.128 347.235C81.4736 347.235 78.8784 346.452 76.6678 344.982C74.4575 343.512 72.7303 341.423 71.703 338.975L11.328 197.138C9.4613 192.704 10.9488 190.546 15.7905 190.663L37.228 191.188C41.1946 191.246 43.9071 193.113 45.3655 196.788L81.0655 286.738Z" fill="#3A4862"/>
<path d="M196.564 283.15L196.214 314.825C196.202 315.491 196.322 316.154 196.566 316.774C196.811 317.394 197.175 317.96 197.638 318.439C198.101 318.919 198.654 319.302 199.266 319.568C199.877 319.833 200.535 319.976 201.201 319.987L248.539 320.425C249.869 320.448 251.138 320.993 252.071 321.942C253.004 322.891 253.527 324.169 253.526 325.5L253.614 340.462C253.614 341.808 253.079 343.099 252.127 344.051C251.176 345.003 249.885 345.537 248.539 345.537L171.714 345.8C171.047 345.8 170.388 345.669 169.772 345.414C169.156 345.158 168.597 344.785 168.125 344.314C167.654 343.842 167.28 343.283 167.025 342.667C166.77 342.051 166.639 341.391 166.639 340.725L166.726 196.7C166.726 195.369 167.249 194.091 168.181 193.142C169.115 192.193 170.383 191.648 171.714 191.625L248.014 191.012C248.687 191.001 249.357 191.123 249.983 191.373C250.609 191.623 251.178 191.995 251.659 192.467C252.139 192.94 252.521 193.503 252.782 194.125C253.042 194.746 253.177 195.413 253.176 196.087V212.975C253.177 213.649 253.042 214.316 252.782 214.937C252.521 215.559 252.139 216.123 251.659 216.595C251.178 217.067 250.609 217.439 249.983 217.689C249.357 217.939 248.687 218.062 248.014 218.05L201.726 216.912C201.052 216.901 200.383 217.023 199.757 217.273C199.131 217.523 198.561 217.895 198.081 218.367C197.6 218.84 197.219 219.403 196.958 220.025C196.698 220.646 196.564 221.313 196.564 221.987V246.575C196.564 247.921 197.098 249.212 198.05 250.164C199.002 251.115 200.293 251.65 201.639 251.65L245.214 251.562C245.88 251.562 246.54 251.694 247.156 251.949C247.771 252.204 248.331 252.577 248.802 253.049C249.274 253.52 249.647 254.08 249.902 254.695C250.157 255.311 250.289 255.971 250.289 256.637L250.464 273.175C250.476 273.856 250.35 274.533 250.095 275.164C249.84 275.796 249.46 276.37 248.978 276.852C248.496 277.334 247.922 277.713 247.291 277.969C246.659 278.224 245.983 278.349 245.301 278.337L201.726 278.075C201.052 278.063 200.383 278.186 199.757 278.436C199.131 278.686 198.561 279.058 198.081 279.53C197.6 280.002 197.219 280.566 196.958 281.188C196.698 281.809 196.564 282.476 196.564 283.15Z" fill="#3A4862"/>
<path d="M301.126 251.825L302.176 340.2C302.234 343.583 300.572 345.304 297.188 345.362L275.663 345.887C272.047 345.946 270.238 344.137 270.238 340.462L270.501 197.05C270.501 193.958 272.018 192.004 275.051 191.187C284.501 188.679 292.58 191.129 299.288 198.537C326.122 228.346 353.276 257.862 380.751 287.087C385.067 291.637 387.198 290.791 387.139 284.55L386.614 199.412C386.614 194.279 389.151 191.596 394.226 191.362L407.089 190.75C408.443 190.678 409.794 190.884 411.068 191.353C412.339 191.822 413.501 192.545 414.484 193.479C415.468 194.412 416.248 195.536 416.784 196.782C417.316 198.028 417.589 199.369 417.589 200.725L417.676 339.587C417.676 343.729 415.636 345.771 411.551 345.712H399.301C397.975 345.711 396.659 345.431 395.441 344.889C394.219 344.346 393.12 343.554 392.214 342.562L306.551 249.725C302.818 245.7 301.009 246.4 301.126 251.825Z" fill="#3A4862"/>
<path d="M490.738 223.037L490.913 339.062C490.913 343.496 488.698 345.683 484.263 345.625H465.538C461.863 345.566 460.026 343.7 460.026 340.025V223.037C460.019 222.006 459.777 220.99 459.322 220.066C458.864 219.143 458.206 218.338 457.394 217.712C456.582 217.087 455.64 216.658 454.639 216.458C453.642 216.259 452.609 216.294 451.626 216.562C444.801 218.371 438.007 218.633 431.238 217.35C426.863 216.533 424.648 213.879 424.588 209.387L424.501 199.237C424.445 194.454 426.807 192.033 431.588 191.975L516.288 191.362C522.238 191.304 525.245 194.279 525.301 200.287V209.212C525.36 215.687 522.151 218.691 515.676 218.225L497.476 216.737C492.985 216.387 490.738 218.487 490.738 223.037Z" fill="#3A4862"/>
<path d="M605.539 350H582.789C554.149 343 537.786 326.959 533.701 301.875C530.376 281.138 532.214 229.25 533.264 196.7C533.309 195.167 533.954 193.711 535.063 192.635C536.169 191.559 537.657 190.946 539.214 190.925H558.114C561.729 190.925 563.539 192.734 563.539 196.35L563.451 287.175C563.392 304.442 571.589 315.642 588.039 320.775C591.13 321.709 594.223 322.029 597.314 321.738C617.964 319.696 628.261 308.292 628.201 287.525V196.263C628.201 192.704 630.011 190.896 633.626 190.838H653.314C654.08 190.826 654.84 190.969 655.551 191.258C656.261 191.548 656.908 191.978 657.454 192.524C658 193.069 658.431 193.719 658.728 194.436C659.022 195.153 659.176 195.923 659.176 196.7C658.886 226.45 658.623 257.134 658.389 288.75C658.098 323.809 640.48 344.225 605.539 350Z" fill="#3A4862"/>
<path d="M714.038 291.725L713.95 343.437C713.95 344.896 713.222 345.625 711.762 345.625L685.425 345.712C683.85 345.712 683.062 344.925 683.062 343.35V194.95C683.062 194.013 683.43 193.114 684.081 192.443C684.736 191.773 685.628 191.385 686.562 191.362C706.453 190.896 724.86 191.041 741.775 191.8C790.338 193.987 798.913 267.75 755.425 279.475C750.816 280.758 749.972 283.296 752.887 287.087L796.025 343.7C796.26 343.991 796.2 344.225 795.85 344.4C792.585 345.566 780.8 345.975 760.5 345.625C758.516 345.625 756.972 344.779 755.863 343.087L720.688 289.712C716.253 282.946 714.038 283.616 714.038 291.725ZM713.688 221.025L713.863 258.125C713.863 258.757 713.988 259.383 714.23 259.967C714.471 260.55 714.825 261.081 715.273 261.528C715.721 261.975 716.25 262.329 716.834 262.571C717.419 262.813 718.045 262.937 718.675 262.937H723.05C726.792 262.92 730.491 262.345 733.939 261.245C737.39 260.145 740.522 258.541 743.154 256.525C745.786 254.509 747.872 252.122 749.286 249.498C750.7 246.875 751.421 244.068 751.4 241.237V237.562C751.362 231.862 748.338 226.412 742.99 222.409C737.642 218.407 730.407 216.178 722.875 216.212H718.5C717.222 216.212 716.001 216.72 715.098 217.622C714.195 218.524 713.688 219.748 713.688 221.025Z" fill="#3A4862"/>
<path d="M841.526 320.25L888.163 320.512C889.479 320.535 890.736 321.067 891.663 321.998C892.594 322.928 893.13 324.184 893.151 325.5L893.326 340.55C893.326 341.896 892.79 343.187 891.838 344.138C890.886 345.09 889.598 345.625 888.251 345.625L811.076 345.712C809.728 345.712 808.44 345.178 807.488 344.226C806.536 343.274 806.001 341.983 806.001 340.637L805.738 196.262C805.738 194.916 806.274 193.625 807.226 192.674C808.178 191.722 809.466 191.187 810.813 191.187L888.338 190.925C889.028 190.924 889.71 191.063 890.344 191.335C890.977 191.606 891.548 192.004 892.024 192.503C892.496 193.002 892.867 193.593 893.105 194.239C893.343 194.886 893.448 195.574 893.413 196.262L892.626 213.587C892.556 214.918 891.968 216.169 890.988 217.069C890.004 217.97 888.706 218.447 887.376 218.4L841.876 216.825C841.193 216.801 840.514 216.915 839.881 217.16C839.244 217.404 838.663 217.774 838.173 218.248C837.683 218.721 837.294 219.289 837.028 219.916C836.762 220.544 836.626 221.218 836.626 221.9V246.837C836.626 248.183 837.161 249.474 838.113 250.426C839.065 251.378 840.353 251.912 841.701 251.912L885.363 251.475C886.028 251.475 886.69 251.606 887.306 251.861C887.922 252.116 888.482 252.49 888.951 252.961C889.423 253.432 889.798 253.992 890.053 254.608C890.305 255.223 890.438 255.883 890.438 256.55V273.437C890.438 274.111 890.305 274.778 890.043 275.4C889.784 276.021 889.402 276.585 888.919 277.057C888.44 277.53 887.869 277.902 887.246 278.151C886.62 278.401 885.948 278.524 885.276 278.512L841.613 277.987C840.938 277.976 840.269 278.098 839.643 278.348C839.02 278.598 838.449 278.97 837.966 279.442C837.487 279.915 837.105 280.478 836.846 281.1C836.584 281.721 836.451 282.389 836.451 283.062V315.175C836.451 316.521 836.986 317.812 837.938 318.763C838.89 319.715 840.178 320.25 841.526 320.25Z" fill="#3A4862"/>
</svg>
