<svg width="1686" height="425" viewBox="0 0 1686 425" fill="none" xmlns="http://www.w3.org/2000/svg">
<mask id="mask0_3288_1133" style="mask-type:luminance" maskUnits="userSpaceOnUse" x="2" y="2" width="1681" height="421">
<path d="M1682.78 2.4707H2.54785V422.529H1682.78V2.4707Z" fill="white"/>
</mask>
<g mask="url(#mask0_3288_1133)">
<path d="M368.073 308.808C364.967 309.215 362.778 309.037 361.505 308.273C305.65 275.992 250.024 243.329 194.627 210.285C193.405 209.521 191.267 209.521 190.121 210.132" stroke="#3A4862" stroke-width="2"/>
<path d="M190.121 210.132L191.954 208.987C192.304 208.756 192.593 208.434 192.792 208.047C192.992 207.661 193.098 207.222 193.1 206.772L191.419 7.20605" stroke="#3A4862" stroke-width="2"/>
<path d="M190.122 210.132L14.5381 311.175" stroke="#3A4862" stroke-width="2"/>
<path d="M368.076 308.808C364.97 309.215 362.78 309.037 361.508 308.273C305.652 275.992 250.027 243.33 194.63 210.285C193.408 209.521 191.27 209.521 190.124 210.132L191.957 208.987C192.307 208.756 192.595 208.434 192.795 208.047C192.995 207.661 193.101 207.222 193.102 206.772L191.422 7.20605L364.333 107.409C366.574 108.682 367.694 110.591 367.694 113.137L368.076 308.808ZM318.203 221.97C318.212 222.384 318.108 222.792 317.904 223.152C317.699 223.512 317.401 223.809 317.04 224.013C316.68 224.217 316.271 224.319 315.857 224.309C315.444 224.299 315.04 224.177 314.69 223.956L294.986 211.736C294.651 211.525 294.377 211.232 294.19 210.884C294.002 210.536 293.909 210.146 293.916 209.75L293.993 92.7452C294.001 92.3499 293.907 91.9595 293.719 91.6116C293.532 91.2637 293.258 90.9701 292.924 90.7596L269.553 76.3249C269.203 76.104 268.8 75.982 268.386 75.9721C267.972 75.9622 267.563 76.064 267.203 76.2681C266.843 76.4717 266.544 76.7692 266.339 77.1285C266.135 77.4883 266.031 77.8965 266.04 78.3106V192.108C266.035 192.515 265.921 192.914 265.711 193.263C265.5 193.612 265.201 193.898 264.843 194.092C264.485 194.287 264.082 194.383 263.675 194.369C263.268 194.356 262.871 194.235 262.527 194.017L242.44 181.416C242.106 181.205 241.832 180.911 241.644 180.564C241.457 180.216 241.363 179.825 241.371 179.43L241.6 62.8065C241.608 62.4116 241.514 62.0207 241.327 61.6728C241.139 61.3249 240.865 61.0314 240.531 60.8208L217.16 46.2333C216.816 46.016 216.42 45.8945 216.012 45.8813C215.605 45.8681 215.202 45.9637 214.844 46.1582C214.486 46.3527 214.186 46.6391 213.976 46.9879C213.766 47.3367 213.652 47.7353 213.647 48.1426L213.723 196.232C213.723 196.635 213.829 197.03 214.03 197.379C214.231 197.727 214.521 198.017 214.869 198.218L342.872 271.843C343.221 272.044 343.616 272.15 344.018 272.15C344.421 272.15 344.816 272.043 345.164 271.842C345.512 271.641 345.802 271.352 346.003 271.003C346.204 270.655 346.31 270.259 346.309 269.857L346.004 122.76C346.012 122.365 345.918 121.975 345.73 121.626C345.543 121.279 345.269 120.985 344.934 120.775L321.335 106.263C320.985 106.043 320.581 105.921 320.168 105.911C319.754 105.9 319.345 106.003 318.985 106.206C318.625 106.41 318.326 106.707 318.121 107.067C317.917 107.427 317.813 107.835 317.822 108.249L318.203 221.97Z" fill="#3A4862"/>
<path d="M191.421 7.20605L193.101 206.772C193.099 207.222 192.994 207.661 192.794 208.047C192.594 208.434 192.306 208.756 191.955 208.987L190.122 210.132L14.5381 311.176L15.2255 112.679C15.2255 110.133 16.3202 108.224 18.5096 106.951L191.421 7.20605ZM85.184 124.975C85.565 124.746 85.9999 124.622 86.4442 124.615C86.8885 124.608 87.3263 124.719 87.7142 124.936C88.1017 125.153 88.4254 125.469 88.6517 125.851C88.878 126.234 88.9991 126.669 89.0031 127.113L88.6977 239.994C88.6927 240.451 88.8118 240.899 89.0421 241.293C89.2724 241.687 89.605 242.011 90.0048 242.23C90.4046 242.45 90.8563 242.556 91.3119 242.539C91.7676 242.522 92.2103 242.382 92.5924 242.133L115.887 227.622C116.256 227.4 116.563 227.087 116.777 226.712C116.991 226.338 117.105 225.915 117.108 225.484L117.032 108.86C117.023 108.416 117.131 107.977 117.345 107.588C117.56 107.199 117.873 106.874 118.254 106.645L168.127 77.4705C168.485 77.255 168.785 76.954 168.998 76.5938C169.212 76.234 169.332 75.8263 169.349 75.4082L170.036 48.6773C170.052 48.2313 169.948 47.7891 169.737 47.396C169.526 47.003 169.214 46.673 168.833 46.44C168.452 46.207 168.017 46.0792 167.571 46.0697C167.124 46.0602 166.684 46.1694 166.294 46.386L38.0613 120.393C37.6663 120.611 37.3375 120.933 37.109 121.323C36.8806 121.712 36.7611 122.156 36.763 122.607L36.9158 149.415C36.9196 149.859 37.0408 150.295 37.2671 150.677C37.4935 151.059 37.8169 151.375 38.2046 151.592C38.5922 151.809 39.0304 151.92 39.4748 151.913C39.919 151.906 40.3536 151.782 40.7344 151.553L85.184 124.975Z" fill="#3A4862"/>
<path d="M618.735 250.763L611.861 265.962C610.69 268.507 608.728 269.78 605.98 269.78L593.838 269.933C590.73 269.933 589.791 268.533 591.011 265.732L628.051 177.749C629.148 175.193 630.966 173.013 633.289 171.481C635.612 169.949 638.33 169.133 641.112 169.133C643.894 169.133 646.612 169.949 648.935 171.481C651.258 173.013 653.076 175.193 654.173 177.749L692.285 267.947C692.997 269.628 692.438 270.417 690.605 270.315L674.183 269.628C671.944 269.526 670.387 268.456 669.523 266.42L663.261 251.527C661.986 248.472 659.698 246.944 656.387 246.944L624.922 246.792C622.022 246.792 619.956 248.116 618.735 250.763ZM643.558 200.585C643.395 200.17 643.113 199.81 642.748 199.552C642.387 199.293 641.952 199.147 641.507 199.131C641.063 199.115 640.618 199.229 640.237 199.461C639.857 199.692 639.55 200.03 639.358 200.433L628.283 224.643C628.115 224.992 628.036 225.378 628.06 225.765C628.08 226.151 628.199 226.527 628.406 226.854C628.614 227.182 628.901 227.453 629.237 227.64C629.578 227.828 629.958 227.927 630.344 227.927L650.966 228.156C651.347 228.17 651.722 228.089 652.063 227.921C652.404 227.752 652.701 227.501 652.918 227.19C653.14 226.879 653.279 226.518 653.323 226.141C653.368 225.763 653.318 225.379 653.18 225.025L643.558 200.585Z" fill="#3A4862"/>
<path d="M977.085 210.361L958.676 264.74C957.712 267.642 955.726 269.424 952.721 270.086C949.257 270.799 945.768 270.926 942.259 270.468C941.044 270.288 939.902 269.772 938.958 268.977C938.014 268.182 937.303 267.138 936.912 265.962L906.055 174.694C905.087 171.792 906.134 170.366 909.188 170.417L923.317 170.494C926.218 170.494 928.076 171.894 928.892 174.694L944.7 228.309C946.939 235.895 949.282 235.921 951.728 228.385L968.683 174.924C969.346 172.836 970.695 171.461 972.731 170.799C977.668 169.068 982.402 169.196 986.934 171.181C987.65 171.465 988.288 171.909 988.807 172.478C989.321 173.047 989.701 173.727 989.914 174.465L1008.7 233.503C1010.03 237.779 1011.33 237.779 1012.6 233.503L1030.17 173.778C1030.44 172.813 1031.03 171.963 1031.85 171.358C1032.66 170.752 1033.65 170.423 1034.67 170.417H1049.1C1052.06 170.417 1053.05 171.792 1052.08 174.542L1021.38 266.114C1020.46 268.762 1018.61 270.137 1015.8 270.238L1005.65 270.544C1002.8 270.646 1000.91 269.347 999.995 266.649L981.438 210.361C980.01 206.033 978.562 206.033 977.085 210.361Z" fill="#3A4862"/>
<path d="M1163.88 215.872C1164.42 222.56 1163.61 229.291 1161.49 235.681C1159.37 242.07 1155.98 247.994 1151.53 253.112C1147.07 258.23 1141.63 262.444 1135.52 265.512C1129.41 268.579 1122.75 270.442 1115.91 270.992C1109.07 271.542 1102.19 270.769 1095.66 268.718C1089.14 266.667 1083.1 263.377 1077.88 259.037C1072.67 254.697 1068.38 249.391 1065.27 243.422C1062.15 237.454 1060.28 230.939 1059.74 224.251C1059.2 217.563 1060.01 210.832 1062.13 204.442C1064.25 198.052 1067.63 192.129 1072.09 187.011C1076.54 181.892 1081.99 177.679 1088.09 174.611C1094.21 171.544 1100.87 169.681 1107.71 169.131C1114.55 168.581 1121.43 169.353 1127.95 171.405C1134.47 173.456 1140.52 176.745 1145.73 181.086C1150.95 185.426 1155.23 190.732 1158.35 196.7C1161.46 202.669 1163.34 209.183 1163.88 215.872ZM1142.59 220.138C1142.59 211.995 1139.35 204.186 1133.59 198.428C1127.84 192.67 1120.03 189.435 1111.88 189.435C1107.85 189.435 1103.86 190.229 1100.14 191.773C1096.41 193.315 1093.03 195.577 1090.17 198.428C1087.32 201.279 1085.06 204.663 1083.52 208.389C1081.98 212.113 1081.18 216.106 1081.18 220.138C1081.18 224.169 1081.98 228.162 1083.52 231.887C1085.06 235.612 1087.32 238.997 1090.17 241.847C1093.03 244.698 1096.41 246.96 1100.14 248.503C1103.86 250.046 1107.85 250.84 1111.88 250.84C1115.92 250.84 1119.91 250.046 1123.64 248.503C1127.36 246.96 1130.74 244.698 1133.59 241.847C1136.44 238.997 1138.71 235.612 1140.25 231.887C1141.79 228.162 1142.59 224.169 1142.59 220.138Z" fill="#3A4862"/>
<path d="M1434.87 244.882C1435.28 243.848 1435.47 242.741 1435.44 241.629C1435.4 240.516 1435.15 239.419 1434.67 238.406C1434.2 237.393 1433.53 236.484 1432.7 235.733C1431.86 234.983 1430.89 234.405 1429.83 234.037C1416.69 229.455 1398.21 227.087 1388.97 216.318C1377.21 202.648 1383.17 180.805 1399.28 173.702C1416.13 166.217 1433.7 168.533 1451.98 180.652C1452.54 181.008 1452.72 181.466 1452.52 182.026C1450.48 187.576 1447.4 192.388 1443.27 196.461C1442.56 197.174 1441.8 197.251 1440.98 196.69C1430.34 189.358 1419.9 187.042 1409.67 189.74C1406.92 190.453 1405.24 192.184 1404.63 194.934C1403.36 200.789 1405.65 204.506 1411.5 206.084C1423.87 209.343 1435.48 213.594 1446.33 218.839C1448.17 219.707 1449.81 220.932 1451.16 222.441C1452.51 223.95 1453.54 225.712 1454.2 227.622C1460.51 246.206 1455.6 259.164 1439.46 266.496C1423.11 273.93 1404.99 271.715 1385.08 259.852C1380.44 257.102 1379.81 253.64 1383.17 249.465L1387.52 244.119C1390.58 240.351 1393.89 240.122 1397.45 243.431C1403.66 249.338 1412.44 252.138 1423.8 251.832C1429.45 251.68 1433.14 249.363 1434.87 244.882Z" fill="#3A4862"/>
<path d="M1682.78 183.554C1682.73 184.369 1682.73 185.158 1682.78 185.922L1672.55 196.538C1669.95 199.186 1667.3 199.211 1664.6 196.615C1633.98 166.523 1593.42 222.734 1630.62 246.868C1642.17 254.404 1654.09 253.029 1666.36 242.744C1668.5 240.912 1670.63 240.937 1672.77 242.821L1682.78 251.68V256.186C1666.74 269.934 1649.56 274.44 1631.23 269.705C1582.58 257.103 1581.13 187.144 1628.71 171.487C1648.51 164.97 1666.54 168.993 1682.78 183.554Z" fill="#3A4862"/>
<path d="M424.822 190.504L401.222 191.268C400.771 191.278 400.321 191.199 399.901 191.036C399.48 190.873 399.095 190.628 398.769 190.316C398.443 190.004 398.181 189.631 397.999 189.217C397.817 188.804 397.719 188.359 397.709 187.908L397.403 174.313C397.393 173.855 397.474 173.4 397.642 172.975C397.811 172.549 398.062 172.161 398.382 171.834C398.702 171.506 399.085 171.246 399.507 171.069C399.929 170.891 400.382 170.8 400.84 170.8L475.763 170.724C476.675 170.724 477.549 171.086 478.193 171.73C478.838 172.375 479.2 173.249 479.2 174.16V187.908C479.2 188.372 479.106 188.832 478.925 189.259C478.742 189.687 478.475 190.073 478.14 190.394C477.804 190.715 477.407 190.965 476.973 191.128C476.538 191.292 476.074 191.365 475.61 191.345L452.927 190.428C452.463 190.408 452 190.481 451.565 190.645C451.13 190.808 450.733 191.058 450.398 191.379C450.062 191.7 449.795 192.086 449.613 192.513C449.431 192.941 449.337 193.4 449.338 193.865L449.414 266.42C449.414 267.332 449.052 268.206 448.407 268.851C447.763 269.495 446.889 269.857 445.977 269.857L431.619 270.01C430.707 270.01 429.833 269.648 429.189 269.003C428.544 268.359 428.182 267.485 428.182 266.573L428.335 193.941C428.335 193.483 428.243 193.03 428.066 192.608C427.889 192.186 427.629 191.804 427.301 191.484C426.974 191.164 426.586 190.912 426.16 190.744C425.734 190.576 425.279 190.495 424.822 190.504Z" fill="#3A4862"/>
<path d="M516.547 242.821L517.308 264.893C517.412 268.202 515.781 269.883 512.421 269.933H500.585C497.684 269.933 496.231 268.508 496.231 265.657L495.925 175.764C495.925 172.353 497.63 170.622 501.045 170.571C517.743 170.316 534.19 170.8 550.379 172.022C578.103 174.084 584.443 205.474 570.008 225.331C568.071 227.979 565.551 229.888 562.447 231.059C560.663 231.67 559.467 232.917 558.859 234.801C558.667 235.396 558.617 236.028 558.711 236.65C558.805 237.272 559.037 237.867 559.393 238.391L578.79 266.726C580.317 268.966 579.734 270.086 577.036 270.086L561.834 269.857C558.271 269.806 555.469 268.33 553.433 265.427C545.571 254.43 538.237 234.649 521.815 236.634C518.148 237.093 516.394 239.155 516.547 242.821ZM516.547 194.018V214.638C516.547 215.692 516.962 216.702 517.709 217.447C518.455 218.192 519.463 218.61 520.516 218.61H541.291C545.259 218.609 549.065 217.208 551.877 214.716C554.684 212.224 556.26 208.845 556.26 205.321V203.335C556.26 201.589 555.875 199.861 555.123 198.248C554.372 196.636 553.27 195.17 551.877 193.937C550.488 192.703 548.837 191.724 547.024 191.056C545.205 190.389 543.258 190.045 541.291 190.046H520.516C519.463 190.046 518.455 190.464 517.709 191.209C516.962 191.954 516.547 192.964 516.547 194.018Z" fill="#3A4862"/>
<path d="M708.781 172.938C708.781 172.29 709.038 171.668 709.498 171.21C709.952 170.752 710.575 170.494 711.223 170.494H745.746C759.801 170.494 773.282 175.556 783.225 184.565C793.164 193.574 798.748 205.793 798.748 218.533V221.589C798.748 234.329 793.164 246.548 783.225 255.557C773.282 264.566 759.801 269.628 745.746 269.628H711.223C710.575 269.628 709.952 269.37 709.498 268.912C709.038 268.454 708.781 267.832 708.781 267.184V172.938ZM729.937 193.33L729.631 246.639C729.621 247.117 729.705 247.592 729.883 248.036C730.056 248.481 730.318 248.885 730.654 249.227C730.99 249.568 731.39 249.84 731.83 250.025C732.27 250.21 732.744 250.305 733.219 250.305L746.661 250.382C750.525 250.403 754.35 249.692 757.928 248.291C761.501 246.889 764.758 244.825 767.5 242.215C770.243 239.605 772.428 236.501 773.925 233.08C775.422 229.659 776.198 225.987 776.218 222.276V218.304C776.257 210.811 773.198 203.608 767.713 198.28C762.227 192.952 754.765 189.935 746.967 189.893L733.525 189.817C732.586 189.817 731.687 190.184 731.015 190.841C730.343 191.498 729.957 192.392 729.937 193.33Z" fill="#3A4862"/>
<path d="M842.132 210.744L882.532 210.591C882.971 210.591 883.401 210.678 883.807 210.848C884.212 211.018 884.578 211.267 884.879 211.58C885.185 211.893 885.428 212.264 885.586 212.671C885.749 213.078 885.828 213.514 885.818 213.951L885.739 226.4C885.739 226.838 885.65 227.271 885.482 227.675C885.314 228.078 885.062 228.444 884.751 228.75C884.439 229.056 884.069 229.296 883.658 229.457C883.253 229.617 882.818 229.694 882.378 229.685L842.206 229.303C841.761 229.292 841.321 229.372 840.906 229.537C840.496 229.702 840.121 229.949 839.804 230.264C839.493 230.578 839.246 230.952 839.078 231.365C838.915 231.777 838.836 232.219 838.846 232.663L838.92 247.403C838.92 248.274 839.266 249.11 839.883 249.725C840.501 250.342 841.336 250.687 842.206 250.687L889.406 250.535C889.841 250.535 890.276 250.622 890.681 250.792C891.081 250.962 891.447 251.21 891.753 251.523C892.06 251.836 892.302 252.208 892.46 252.615C892.623 253.022 892.702 253.457 892.687 253.895L892.46 266.42C892.44 267.278 892.084 268.094 891.471 268.694C890.859 269.293 890.033 269.629 889.178 269.628H821.129C820.254 269.628 819.419 269.282 818.806 268.666C818.189 268.05 817.843 267.215 817.843 266.344L817.769 174.084C817.769 173.653 817.853 173.226 818.016 172.827C818.184 172.429 818.421 172.067 818.727 171.762C819.034 171.457 819.394 171.215 819.795 171.05C820.19 170.885 820.62 170.8 821.05 170.8H889.327C890.201 170.8 891.037 171.146 891.649 171.762C892.267 172.378 892.613 173.213 892.613 174.084V186.457C892.613 187.328 892.267 188.163 891.649 188.779C891.037 189.395 890.201 189.741 889.327 189.741L842.28 189.588C841.41 189.588 840.575 189.934 839.962 190.55C839.345 191.166 838.999 192.001 838.999 192.872L838.771 207.383C838.757 207.827 838.841 208.269 839.004 208.682C839.167 209.094 839.414 209.468 839.73 209.783C840.046 210.097 840.417 210.344 840.832 210.509C841.242 210.674 841.687 210.754 842.132 210.744Z" fill="#3A4862"/>
<path d="M1204.68 242.668L1204.76 267.565C1204.76 268.991 1204.04 269.729 1202.62 269.78L1188.26 270.01C1185.51 270.06 1184.13 268.711 1184.13 265.962V174.542C1184.13 171.639 1185.61 170.239 1188.57 170.341C1202.36 170.799 1215.83 171.029 1228.97 171.029C1267.08 171.029 1278.69 212.347 1248.44 232.28C1245.85 234.012 1245.44 236.176 1247.22 238.773L1266.16 266.802C1267.74 269.144 1267.13 270.264 1264.33 270.162L1249.13 269.704C1245.36 269.602 1242.41 267.998 1240.27 264.892C1233.01 254.123 1225.38 234.648 1209.8 236.71C1206.39 237.219 1204.68 239.205 1204.68 242.668ZM1204.68 194.017V214.638C1204.68 215.692 1205.1 216.702 1205.84 217.446C1206.59 218.191 1207.6 218.61 1208.65 218.61H1228.43C1232.5 218.608 1236.4 217.199 1239.28 214.693C1242.16 212.186 1243.78 208.788 1243.78 205.244V203.411C1243.78 201.655 1243.39 199.917 1242.62 198.295C1241.84 196.673 1240.71 195.199 1239.29 193.958C1237.86 192.717 1236.17 191.732 1234.31 191.061C1232.45 190.39 1230.45 190.045 1228.43 190.046H1208.65C1207.6 190.046 1206.59 190.464 1205.84 191.209C1205.1 191.954 1204.68 192.964 1204.68 194.017Z" fill="#3A4862"/>
<path d="M1310.53 209.75L1342.22 174.924C1344.77 172.123 1347.93 170.672 1351.7 170.57L1367.58 170.112C1370.89 170.061 1371.4 171.232 1369.11 173.625L1335.5 209.215C1333.26 211.609 1333.11 214.103 1335.05 216.7L1371.55 265.962C1373.59 268.813 1372.88 270.188 1369.41 270.086L1353.22 269.551C1350.02 269.449 1347.44 268.1 1345.51 265.503L1320.53 230.677C1320.18 230.189 1319.72 229.784 1319.2 229.49C1318.67 229.197 1318.08 229.022 1317.49 228.978C1316.89 228.935 1316.29 229.023 1315.74 229.237C1315.18 229.452 1314.68 229.787 1314.27 230.218C1303.12 242.209 1306.48 250.916 1306.56 266.038C1306.56 268.635 1305.26 269.933 1302.66 269.933L1289.07 269.78C1286.27 269.729 1284.87 268.329 1284.87 265.58V174.771C1284.87 172.021 1286.24 170.621 1289 170.57L1302.82 170.417C1305.47 170.366 1306.76 171.665 1306.71 174.313L1306.25 208.07C1306.15 212.449 1307.58 213.009 1310.53 209.75Z" fill="#3A4862"/>
<path d="M1536.6 231.518C1538.94 237.882 1541.28 237.882 1543.62 231.518L1564.71 174.237C1565.13 173.092 1565.88 172.105 1566.87 171.408C1567.85 170.711 1569.02 170.339 1570.2 170.342H1585.18C1587.87 170.393 1588.71 171.666 1587.7 174.16L1551.03 265.657C1549.92 268.457 1547.88 270.086 1544.92 270.545C1540.7 271.156 1536.7 270.876 1532.94 269.705C1530.85 269.043 1529.42 267.719 1528.66 265.733L1492.38 174.772C1492.2 174.298 1492.13 173.785 1492.18 173.28C1492.24 172.774 1492.42 172.289 1492.7 171.867C1492.99 171.446 1493.37 171.101 1493.82 170.862C1494.27 170.622 1494.77 170.496 1495.28 170.495H1509.33C1512.69 170.495 1514.94 172.047 1516.05 175.153L1536.6 231.518Z" fill="#3A4862"/>
<path d="M190.122 210.132C191.268 209.521 193.406 209.521 194.628 210.285C250.025 243.329 305.651 275.992 361.506 308.273C362.779 309.036 364.968 309.215 368.074 308.808L366.929 310.869C366.165 312.346 365.07 313.492 363.645 314.306L195.316 411.225C193.025 412.498 190.733 412.498 188.442 411.225L14.5381 311.175L190.122 210.132ZM153.005 329.505C153.015 329.956 152.903 330.401 152.682 330.794C152.462 331.187 152.139 331.514 151.749 331.74C151.359 331.966 150.916 332.084 150.465 332.08C150.014 332.076 149.572 331.952 149.186 331.72L88.2391 296.206C87.863 295.973 87.4316 295.843 86.9893 295.83C86.547 295.816 86.1086 295.92 85.7187 296.129L62.8068 309.342C62.4263 309.564 62.111 309.882 61.8915 310.263C61.6721 310.646 61.557 311.078 61.557 311.519C61.557 311.959 61.6721 312.392 61.8915 312.773C62.111 313.155 62.4263 313.473 62.8068 313.695L176.451 379.453C176.832 379.682 177.267 379.807 177.711 379.813C178.155 379.82 178.594 379.709 178.982 379.493C179.369 379.275 179.693 378.96 179.919 378.577C180.145 378.195 180.266 377.759 180.27 377.315L180.194 245.799C180.19 245.354 180.069 244.919 179.842 244.537C179.616 244.154 179.293 243.838 178.905 243.622C178.517 243.404 178.079 243.293 177.635 243.3C177.191 243.307 176.756 243.431 176.375 243.66L153.692 257.561C153.311 257.789 152.998 258.115 152.783 258.503C152.568 258.892 152.461 259.331 152.47 259.775L153.005 329.505ZM233.274 331.949C232.925 332.15 232.53 332.256 232.128 332.256C231.726 332.256 231.33 332.15 230.982 331.948C230.634 331.747 230.344 331.458 230.144 331.109C229.942 330.761 229.837 330.365 229.837 329.963L230.066 292.998C230.071 292.59 230.185 292.192 230.395 291.843C230.606 291.494 230.905 291.208 231.263 291.013C231.621 290.819 232.024 290.723 232.431 290.737C232.838 290.75 233.235 290.871 233.579 291.089L243.202 297.504C243.561 297.746 243.981 297.882 244.413 297.896C244.846 297.909 245.274 297.8 245.646 297.58L268.788 284.062C269.137 283.861 269.427 283.572 269.628 283.223C269.83 282.875 269.936 282.479 269.936 282.077C269.936 281.674 269.83 281.278 269.628 280.93C269.427 280.581 269.137 280.292 268.788 280.09L206.237 243.507C205.889 243.306 205.494 243.2 205.091 243.2C204.689 243.2 204.294 243.307 203.945 243.508C203.597 243.709 203.308 243.999 203.107 244.347C202.906 244.695 202.8 245.091 202.8 245.493L202.724 377.697C202.724 378.099 202.829 378.495 203.031 378.843C203.232 379.192 203.521 379.481 203.869 379.682C204.218 379.883 204.612 379.99 205.015 379.99C205.417 379.99 205.812 379.884 206.161 379.683L320.417 313.466C320.766 313.265 321.056 312.976 321.257 312.627C321.459 312.279 321.565 311.883 321.565 311.481C321.565 311.078 321.459 310.682 321.257 310.334C321.056 309.985 320.766 309.696 320.417 309.495L297.275 296.129C296.927 295.928 296.532 295.822 296.13 295.822C295.728 295.822 295.333 295.928 294.984 296.129L233.274 331.949Z" fill="#3A4862"/>
<path d="M1491.97 246.8L1476.24 246.937C1474.26 246.955 1472.66 248.576 1472.68 250.558L1472.82 266.443C1472.84 268.426 1474.46 270.019 1476.44 270.001L1492.18 269.864C1494.16 269.847 1495.75 268.226 1495.73 266.244L1495.6 250.358C1495.58 248.376 1493.95 246.783 1491.97 246.8Z" fill="#3A4862"/>
</g>
</svg>
