<svg width="120" height="38" viewBox="0 0 120 38" fill="none" xmlns="http://www.w3.org/2000/svg">
<path d="M44.76 28V20.056H43.056V18.064H44.76V13.864C44.76 12.424 45.08 11.32 45.72 10.552C46.376 9.784 47.336 9.4 48.6 9.4C48.936 9.4 49.304 9.448 49.704 9.544C50.12 9.64 50.48 9.8 50.784 10.024L49.848 11.632C49.704 11.488 49.544 11.392 49.368 11.344C49.192 11.28 49.016 11.248 48.84 11.248C48.248 11.248 47.792 11.448 47.472 11.848C47.152 12.248 46.992 12.928 46.992 13.888V18.064H50.136V20.056H46.992V28H44.76ZM55.0298 18.064L55.2458 20.944L55.1258 20.56C55.3818 19.952 55.7498 19.44 56.2298 19.024C56.7258 18.592 57.2378 18.264 57.7658 18.04C58.3098 17.8 58.7818 17.68 59.1818 17.68L59.0618 19.888C58.3098 19.84 57.6458 19.984 57.0698 20.32C56.5098 20.656 56.0618 21.104 55.7258 21.664C55.4058 22.224 55.2458 22.824 55.2458 23.464V28H53.0378V18.064H55.0298ZM60.7753 22.936C60.7753 21.944 61.0073 21.048 61.4713 20.248C61.9513 19.448 62.6073 18.816 63.4393 18.352C64.2713 17.888 65.2153 17.656 66.2713 17.656C67.3593 17.656 68.3113 17.888 69.1273 18.352C69.9433 18.816 70.5753 19.448 71.0233 20.248C71.4713 21.048 71.6953 21.944 71.6953 22.936C71.6953 23.928 71.4713 24.832 71.0233 25.648C70.5753 26.448 69.9353 27.08 69.1033 27.544C68.2873 28.008 67.3353 28.24 66.2473 28.24C65.1913 28.24 64.2473 28.024 63.4153 27.592C62.5993 27.144 61.9513 26.528 61.4713 25.744C61.0073 24.944 60.7753 24.008 60.7753 22.936ZM63.0073 22.96C63.0073 23.6 63.1513 24.184 63.4393 24.712C63.7273 25.224 64.1113 25.632 64.5913 25.936C65.0873 26.24 65.6313 26.392 66.2233 26.392C66.8473 26.392 67.3993 26.24 67.8793 25.936C68.3753 25.632 68.7593 25.224 69.0313 24.712C69.3033 24.184 69.4393 23.6 69.4393 22.96C69.4393 22.32 69.3033 21.744 69.0313 21.232C68.7593 20.704 68.3753 20.288 67.8793 19.984C67.3993 19.664 66.8473 19.504 66.2233 19.504C65.6153 19.504 65.0633 19.664 64.5673 19.984C64.0873 20.304 63.7033 20.728 63.4153 21.256C63.1433 21.768 63.0073 22.336 63.0073 22.96ZM76.7094 18.064L76.9014 20.488L76.8054 20.104C77.1254 19.368 77.6454 18.784 78.3654 18.352C79.0854 17.904 79.9174 17.68 80.8614 17.68C81.8054 17.68 82.5734 17.96 83.1654 18.52C83.7734 19.064 84.0854 19.776 84.1014 20.656V28H81.8454V21.448C81.8294 20.904 81.6694 20.464 81.3654 20.128C81.0774 19.776 80.6214 19.6 79.9974 19.6C79.4214 19.6 78.9014 19.76 78.4374 20.08C77.9734 20.4 77.6054 20.84 77.3334 21.4C77.0774 21.96 76.9494 22.608 76.9494 23.344V28H74.7174V18.064H76.7094ZM88.9431 13.696H91.1751V18.112H93.9111V19.864H91.1751V28H88.9431V19.864H87.1191V18.112H88.9431V13.696Z" fill="white"/>
<path d="M97.28 28V9.616H97.304L107.12 23.536L105.632 23.2L115.424 9.616H115.472V28H111.992V17.464L112.208 19.264L106.232 27.76H106.184L100.04 19.264L100.64 17.608V28H97.28Z" fill="white"/>
<mask id="mask0_180_1417" style="mask-type:alpha" maskUnits="userSpaceOnUse" x="6" y="3" width="29" height="32">
<path fill-rule="evenodd" clip-rule="evenodd" d="M26.9053 9.54572C28.752 9.54572 30.2491 8.08041 30.2491 6.27286C30.2491 4.46531 28.752 3 26.9053 3C25.0586 3 23.5615 4.46531 23.5615 6.27286C23.5615 8.08041 25.0586 9.54572 26.9053 9.54572ZM16.8395 7.3386C16.8395 8.72267 15.6932 9.84469 14.2791 9.84469C12.8651 9.84469 11.7188 8.72267 11.7188 7.3386C11.7188 5.95453 12.8651 4.83252 14.2791 4.83252C15.6932 4.83252 16.8395 5.95453 16.8395 7.3386ZM15.8489 16.5122C16.0342 16.0026 16.135 15.4542 16.135 14.883C16.135 12.1801 13.8776 9.98901 11.0929 9.98901C8.30821 9.98901 6.05078 12.1801 6.05078 14.883C6.05078 16.4549 6.81429 17.8538 8.00098 18.7492V18.7846C9.03424 19.7142 9.68094 21.0429 9.68094 22.5182C9.68094 23.9603 9.06308 25.2623 8.07032 26.1884C6.84411 27.0811 6.05078 28.5036 6.05078 30.1059C6.05078 32.8088 8.30821 34.9999 11.0929 34.9999C13.8776 34.9999 16.135 32.8088 16.135 30.1059C16.135 28.4799 15.318 27.0391 14.0608 26.1491C13.3455 25.2261 12.3973 23.7962 12.2229 22.7431C11.9525 21.1104 13.1697 20.0513 14.1165 21.0221C14.6956 21.616 15.0217 22.6391 15.3012 23.5158C15.4785 24.0724 15.6371 24.5699 15.8297 24.8612L15.9581 24.8302C16.5455 26.5409 18.2086 27.7742 20.1685 27.7742C22.5451 27.7742 24.4853 25.9606 24.6002 23.6814L24.6531 23.5158C24.9325 22.6391 25.2586 21.616 25.8377 21.0221C26.7845 20.0513 28.0017 21.1104 27.7314 22.7431C27.515 24.0493 26.1084 25.935 25.4321 26.7145L25.4716 26.859C24.6818 27.7229 24.2021 28.8601 24.2021 30.1059C24.2021 32.8088 26.4596 35 29.2443 35C32.0289 35 34.2864 32.8088 34.2864 30.1059C34.2864 28.5053 33.4947 27.0841 32.2706 26.1912C31.2761 25.2649 30.657 23.9617 30.657 22.5182C30.657 21.0125 31.3307 19.6594 32.4014 18.7276V18.6991C33.5508 17.8021 34.2864 16.4259 34.2864 14.883C34.2864 12.1801 32.0289 9.98901 29.2443 9.98901C26.4596 9.98901 24.2021 12.1801 24.2021 14.883C24.2021 15.4542 24.303 16.0026 24.4883 16.5122H24.481C24.6138 16.9252 24.6854 17.3645 24.6854 17.8199C24.6854 20.2408 22.6635 22.2033 20.1694 22.2033C17.6752 22.2033 15.6533 20.2408 15.6533 17.8199C15.6533 17.3645 15.7249 16.9252 15.8577 16.5122H15.8489Z" fill="#C4C4C4"/>
</mask>
<g mask="url(#mask0_180_1417)">
<ellipse cx="12.0542" cy="11.9281" rx="9.52321" ry="9.32119" fill="#01C5FB"/>
<ellipse cx="11.2005" cy="15.0789" rx="4.80008" ry="4.69826" fill="url(#paint0_linear_180_1417)"/>
<ellipse cx="11.6458" cy="32.8457" rx="14.803" ry="14.489" fill="#47B535"/>
<path d="M45.0525 12.2505C45.0525 20.2525 38.425 26.7395 30.2495 26.7395C25.8365 26.7395 21.8746 24.8494 19.1625 21.8513C16.8502 19.295 20.2403 15.9332 20.2403 12.2505C20.2403 4.24842 22.074 -2.23853 30.2495 -2.23853C38.425 -2.23853 45.0525 4.24842 45.0525 12.2505Z" fill="#FDA400"/>
<path d="M36.8016 14.6873C36.8016 22.6894 38.4249 26.7392 30.2495 26.7392C25.8365 26.7392 21.8746 24.8492 19.1625 21.851C16.8502 19.2948 20.2403 15.933 20.2403 12.2502C20.2403 12.2502 21.026 16.2533 29.2015 16.2533C37.377 16.2533 36.8016 14.6873 36.8016 14.6873Z" fill="#FEBA00"/>
<ellipse cx="34.804" cy="37.3359" rx="14.803" ry="14.489" fill="#FF8824"/>
<ellipse cx="14.8" cy="6.85749" rx="2.74065" ry="2.80005" transform="rotate(-90 14.8 6.85749)" fill="url(#paint1_linear_180_1417)" fill-opacity="0.7"/>
<ellipse cx="3.18408" cy="3.1255" rx="3.18408" ry="3.1255" transform="matrix(-0.967287 -0.253686 0.264041 -0.964511 29.3604 9.80322)" fill="url(#paint2_linear_180_1417)" fill-opacity="0.7"/>
<path d="M34.3998 29.3692C34.3998 32.2884 31.9821 34.6548 28.9997 34.6548C26.0173 34.6548 23.5996 32.2884 23.5996 29.3692C23.5996 26.4501 26.5997 25.0625 31.9998 22.7134C34.9821 22.7134 34.3998 26.4501 34.3998 29.3692Z" fill="url(#paint3_linear_180_1417)" fill-opacity="0.7"/>
<ellipse cx="11.2001" cy="29.5654" rx="5.20009" ry="5.08978" fill="url(#paint4_linear_180_1417)"/>
<ellipse cx="28.9997" cy="15.6662" rx="5.40009" ry="5.28554" fill="url(#paint5_linear_180_1417)"/>
</g>
<defs>
<linearGradient id="paint0_linear_180_1417" x1="9.87604" y1="10.8363" x2="11.9379" y2="18.1919" gradientUnits="userSpaceOnUse">
<stop stop-color="#0091D8"/>
<stop offset="1" stop-color="#00AEEC" stop-opacity="0"/>
</linearGradient>
<linearGradient id="paint1_linear_180_1417" x1="14.8" y1="4.05744" x2="14.8" y2="9.65754" gradientUnits="userSpaceOnUse">
<stop stop-color="#0091D8"/>
<stop offset="1" stop-color="#00AEEC" stop-opacity="0"/>
</linearGradient>
<linearGradient id="paint2_linear_180_1417" x1="3.18408" y1="0" x2="3.18408" y2="6.251" gradientUnits="userSpaceOnUse">
<stop stop-color="#FFAE01"/>
<stop offset="1" stop-color="#FFC700"/>
</linearGradient>
<linearGradient id="paint3_linear_180_1417" x1="28.9997" y1="24.0837" x2="28.9997" y2="34.6548" gradientUnits="userSpaceOnUse">
<stop stop-color="#FF7610"/>
<stop offset="1" stop-color="#EA4904"/>
</linearGradient>
<linearGradient id="paint4_linear_180_1417" x1="11.2001" y1="24.4756" x2="11.2001" y2="34.6551" gradientUnits="userSpaceOnUse">
<stop stop-color="#47B535"/>
<stop offset="1" stop-color="#00882E"/>
</linearGradient>
<linearGradient id="paint5_linear_180_1417" x1="28.9997" y1="10.3806" x2="28.9997" y2="20.9517" gradientUnits="userSpaceOnUse">
<stop stop-color="#FECD00"/>
<stop offset="1" stop-color="#FEBA00"/>
</linearGradient>
</defs>
</svg>
