<svg width="744" height="550" viewBox="0 0 744 550" fill="none" xmlns="http://www.w3.org/2000/svg">
<path d="M617.745 110.423C630.306 95.8702 645.966 88.0189 664.729 86.871C711.653 83.9899 739.558 109.888 742.797 156.338C743.867 171.524 744.115 187.631 743.54 204.659C743.52 205.827 742.946 206.253 741.817 205.936C720.38 199.58 698.814 199.6 677.121 205.996C675.714 206.411 675.041 205.876 675.1 204.392C675.754 190.631 675.645 177.692 674.773 165.574C673.604 149.576 665.432 140.914 650.256 139.588C641.776 138.854 634.238 139.795 627.64 142.409C622.559 144.429 615.872 149.061 615.872 155.268C615.912 207.857 615.922 258.029 615.902 305.786C615.902 306.855 615.367 307.389 614.297 307.389H549.037C548.046 307.389 547.551 306.894 547.551 305.904V1.48496C547.551 0.494934 548.046 0 549.037 0H614.416C615.406 0 615.902 0.494934 615.902 1.48496V109.74C615.902 111.601 616.516 111.828 617.745 110.423Z" fill="white"/>
<path d="M27.489 89.0986V37.8669C27.489 36.8768 27.9843 36.3818 28.9748 36.3818H93.611C95.0972 36.3818 95.8403 37.1243 95.8403 38.6093V89.0986C95.8403 89.4919 95.9967 89.8696 96.2753 90.1483C96.554 90.4269 96.9317 90.5833 97.3257 90.5833L130.016 90.5539C130.41 90.5539 130.788 90.7133 131.066 90.9974C131.345 91.2815 131.501 91.667 131.501 92.0687V136.261C131.501 137.489 130.877 138.103 129.629 138.103H96.7312C96.5106 138.103 96.2993 138.19 96.143 138.346C95.9874 138.502 95.8991 138.714 95.8991 138.934C95.7807 168.772 95.7908 202.323 95.9293 239.585C95.9688 249.129 99.634 254.881 106.925 256.841C114.414 258.861 122.953 258.87 132.542 256.871C133.83 256.613 134.473 257.138 134.473 258.444V304.42C134.473 305.469 133.968 306.142 132.957 306.439C114.751 311.766 96.2854 313.082 77.5632 310.389C50.2825 306.469 34.1359 290.857 29.1235 263.553C28.3706 259.434 27.9645 252.515 27.905 242.793C27.6475 207.807 27.479 173.415 27.3998 139.617C27.3998 138.587 26.8847 138.073 25.8545 138.073L1.48589 138.103C0.495243 138.103 0 137.607 0 136.617V92.0687C0 91.0787 0.495243 90.5833 1.48589 90.5833H26.0031C26.9936 90.5833 27.489 90.0887 27.489 89.0986Z" fill="white"/>
<path d="M203.953 222.152C211.481 248.98 229.54 261.138 258.129 258.623C275.147 257.118 289.025 250.05 299.764 237.417C299.896 237.264 300.061 237.141 300.244 237.057C300.429 236.972 300.628 236.929 300.829 236.929C301.03 236.929 301.227 236.972 301.408 237.057C301.588 237.141 301.747 237.264 301.873 237.417L329.779 270.443C331.978 273.057 331.859 275.551 329.422 277.928C310.977 295.906 290.373 306.608 267.608 310.033C233.374 315.2 196.583 309.023 170.461 286.719C148.886 268.285 137.038 245.317 134.918 217.816C133.136 194.562 134.294 169.02 143.269 147.458C157.871 112.373 183.913 92.4546 221.397 87.7026C283.151 79.8916 331.264 112.145 336.851 176.236C338.08 190.314 338.436 204.451 337.921 218.648C337.881 219.895 337.237 220.519 335.99 220.519H205.201C205.003 220.521 204.808 220.569 204.632 220.658C204.454 220.747 204.3 220.875 204.18 221.032C204.06 221.189 203.977 221.372 203.937 221.566C203.898 221.76 203.903 221.96 203.953 222.152ZM243.567 139.647C219.228 137.242 207.222 153.844 204.161 175.524C203.983 176.811 204.537 177.455 205.825 177.455H269.54C270.551 177.455 271.085 176.949 271.145 175.94C272.304 157.437 263.983 141.667 243.567 139.647Z" fill="white"/>
<path d="M449.927 139.647C429.927 137.449 418.485 150.487 415.96 168.693C412.611 192.927 412.889 214.479 416.792 233.349C420.536 251.465 431.254 259.949 448.946 258.801C465.43 257.731 474.335 248.376 475.663 230.735C475.742 229.864 476.217 229.428 477.089 229.428H537.773C538.724 229.428 539.209 229.903 539.229 230.854C539.606 249.703 533.83 266.226 521.904 280.422C500.21 306.231 467.668 314.339 434.8 311.161C387.49 306.558 356.494 275.908 348.352 230.349C336.94 166.614 358.129 95.5728 432.363 87.4351C489.659 81.1389 538.338 108.997 539.407 172.048C539.427 173.177 538.873 173.741 537.743 173.741H477.03C475.841 173.741 475.256 173.148 475.277 171.959C475.395 156.1 466.688 141.488 449.927 139.647Z" fill="white"/>
<path d="M675.992 237.15C675.577 237.309 675.368 237.16 675.368 236.705L675.339 216.034C675.319 215.42 675.606 215.024 676.2 214.845C698.35 207.757 720.579 207.747 742.887 214.816C743.442 214.994 743.719 215.37 743.719 215.945L743.63 236.586C743.632 236.679 743.61 236.771 743.568 236.854C743.526 236.936 743.463 237.007 743.387 237.06C743.311 237.113 743.222 237.146 743.129 237.156C743.037 237.167 742.944 237.155 742.858 237.121C721.361 228.111 699.073 228.121 675.992 237.15Z" fill="white"/>
<path d="M743.212 253.545C743.529 253.683 743.688 253.931 743.688 254.287L743.598 266.879C743.595 266.957 743.571 267.033 743.529 267.099C743.487 267.165 743.429 267.218 743.36 267.254C743.29 267.29 743.213 267.307 743.135 267.304C743.057 267.301 742.981 267.277 742.915 267.236C720.527 253.891 698.239 253.94 676.05 267.384C675.985 267.424 675.91 267.446 675.834 267.447C675.757 267.448 675.681 267.428 675.612 267.389C675.544 267.351 675.486 267.294 675.442 267.226C675.399 267.157 675.373 267.079 675.366 266.999C675.188 260.088 675.277 255.762 675.634 254.02C675.674 253.881 675.763 253.772 675.901 253.693C697.774 242.902 720.211 242.852 743.212 253.545Z" fill="white"/>
<path d="M709.543 351.196C728.138 351.196 743.213 336.131 743.213 317.546C743.213 298.963 728.138 283.897 709.543 283.897C690.948 283.897 675.873 298.963 675.873 317.546C675.873 336.131 690.948 351.196 709.543 351.196Z" fill="white"/>
<path d="M403.776 461.351C409.719 480.993 421.081 492.378 437.862 495.506C462.825 500.198 483.409 493.585 499.616 475.666C500.368 474.815 501.111 474.825 501.844 475.696L531.057 510.118C531.437 510.57 531.64 511.146 531.63 511.74C531.619 512.334 531.394 512.907 530.998 513.355C505.559 542.044 470.671 552.915 429.63 549.024C380.239 544.302 341.012 509.672 334.86 459.807C330.492 424.316 336.227 383.094 360.061 356.393C386.361 326.961 426.985 318.289 464.935 326.337C506.926 335.277 532.246 370.531 536.495 411.694C538.021 426.642 538.427 441.908 537.714 457.49C537.655 458.401 537.169 458.856 536.258 458.856H405.618C403.875 458.856 403.261 459.688 403.776 461.351ZM471.028 414.277C471.859 396.637 465.292 381.014 446.213 377.747C419.853 373.263 406.599 391.052 403.598 414.219C403.459 415.267 403.924 415.792 404.994 415.792H469.452C470.442 415.792 470.968 415.288 471.028 414.277Z" fill="white"/>
<path d="M678.102 526.275C677.943 524.116 677.15 523.849 675.725 525.473C657.091 546.975 631.355 553.004 603.926 548.698C566.392 542.788 547.789 512.88 547.67 476.082C547.472 427.811 547.462 378.767 547.64 328.951C547.64 328.746 547.722 328.55 547.867 328.406C548.012 328.261 548.208 328.179 548.413 328.179H614.297C615.367 328.179 615.902 328.714 615.902 329.783C615.902 376.589 615.892 423.633 615.873 470.915C615.873 486.14 622.827 494.664 636.734 496.486C653.02 498.585 665.551 493.744 674.327 481.963C675.001 481.052 675.338 480.032 675.338 478.904L675.368 430.732C675.368 429.444 675.982 428.969 677.21 429.306C698.686 435.384 720.252 435.394 741.906 429.335C743.095 429.019 743.689 429.474 743.689 430.701V544.985C743.689 545.182 743.61 545.371 743.471 545.51C743.332 545.649 743.143 545.727 742.946 545.727H681.579C680.311 545.727 679.627 545.094 679.528 543.827L678.102 526.275Z" fill="white"/>
<path d="M676.556 368.184C699.578 381.49 721.757 381.271 743.094 367.531C743.148 367.5 743.208 367.484 743.269 367.483C743.331 367.482 743.392 367.498 743.446 367.528C743.5 367.557 743.545 367.601 743.577 367.653C743.609 367.706 743.627 367.766 743.629 367.827L743.688 380.717C743.688 381.014 743.55 381.232 743.272 381.37C720.865 392.379 698.498 392.399 676.17 381.43C675.634 381.173 675.367 380.747 675.367 380.153L675.338 368.897C675.338 367.947 675.743 367.709 676.556 368.184Z" fill="white"/>
<path d="M742.857 398.239C742.952 398.205 743.054 398.194 743.155 398.206C743.255 398.219 743.351 398.253 743.433 398.309C743.515 398.365 743.581 398.439 743.625 398.525C743.67 398.612 743.692 398.707 743.688 398.804V419.415C743.69 419.603 743.629 419.785 743.516 419.936C743.403 420.086 743.245 420.195 743.064 420.247C721.37 427.256 699.052 427.315 676.11 420.426C675.595 420.267 675.338 419.92 675.338 419.386L675.367 398.239C675.367 397.764 675.595 397.626 676.051 397.824C697.071 406.972 719.34 407.11 742.857 398.239Z" fill="white"/>
</svg>
